# Blender v3.0.1 OBJ File: 'fan.blend'
# www.blender.org
mtllib cable.mtl
o cable_Sphere.004
v -0.000000 2.509517 -0.050112
v 0.009776 2.509517 -0.049149
v 0.019177 2.509517 -0.046297
v 0.027840 2.509517 -0.041666
v 0.035434 2.509517 -0.035434
v 0.041666 2.509517 -0.027840
v 0.046297 2.509517 -0.019177
v 0.049149 2.509517 -0.009776
v 0.050112 2.509517 -0.000000
v 0.049149 2.509517 0.009776
v 0.046297 2.509517 0.019177
v 0.041666 2.509517 0.027840
v 0.035434 2.509517 0.035434
v 0.027840 2.509517 0.041666
v 0.019177 2.509517 0.046297
v 0.009776 2.509517 0.049149
v -0.000000 2.509517 0.050112
v -0.009776 2.509517 0.049149
v -0.019177 2.509517 0.046297
v -0.027840 2.509517 0.041666
v -0.035434 2.509517 0.035434
v -0.041666 2.509517 0.027840
v -0.046297 2.509517 0.019177
v -0.049149 2.509517 0.009776
v -0.050112 2.509517 0.000000
v -0.049149 2.509517 -0.009776
v -0.046297 2.509517 -0.019177
v -0.041666 2.509517 -0.027840
v -0.035434 2.509517 -0.035434
v -0.027841 2.509517 -0.041666
v -0.019177 2.509517 -0.046297
v -0.009776 2.509517 -0.049149
v 0.009776 4.512543 -0.049149
v 0.000000 4.512543 -0.050112
v 0.019177 4.512543 -0.046297
v 0.027841 4.512543 -0.041666
v 0.035434 4.512543 -0.035434
v 0.041666 4.512543 -0.027840
v 0.046297 4.512543 -0.019177
v 0.049149 4.512543 -0.009776
v 0.050112 4.512543 -0.000000
v 0.049149 4.512543 0.009776
v 0.046297 4.512543 0.019177
v 0.041666 4.512543 0.027840
v 0.035434 4.512543 0.035434
v 0.027841 4.512543 0.041666
v 0.019177 4.512543 0.046297
v 0.009776 4.512543 0.049149
v 0.000000 4.512543 0.050112
v -0.009776 4.512543 0.049149
v -0.019177 4.512543 0.046297
v -0.027840 4.512543 0.041666
v -0.035434 4.512543 0.035434
v -0.041666 4.512543 0.027840
v -0.046297 4.512543 0.019177
v -0.049149 4.512543 0.009776
v -0.050111 4.512543 0.000000
v -0.049149 4.512543 -0.009776
v -0.046297 4.512543 -0.019177
v -0.041666 4.512543 -0.027840
v -0.035434 4.512543 -0.035434
v -0.027840 4.512543 -0.041666
v -0.019177 4.512543 -0.046297
v -0.009776 4.512543 -0.049149
v 0.009790 6.325205 -0.049149
v 0.000014 6.325205 -0.050112
v 0.019191 6.325205 -0.046297
v 0.027854 6.325205 -0.041666
v 0.035448 6.325205 -0.035434
v 0.041680 6.325205 -0.027840
v 0.046311 6.325205 -0.019177
v 0.049162 6.325205 -0.009776
v 0.050125 6.325205 -0.000000
v 0.049162 6.325205 0.009776
v 0.046311 6.325205 0.019177
v 0.041680 6.325205 0.027840
v 0.035448 6.325205 0.035434
v 0.027854 6.325205 0.041666
v 0.019191 6.325205 0.046297
v 0.009790 6.325205 0.049149
v 0.000014 6.325205 0.050112
v -0.009763 6.325205 0.049149
v -0.019163 6.325205 0.046297
v -0.027827 6.325205 0.041666
v -0.035421 6.325205 0.035434
v -0.041653 6.325205 0.027840
v -0.046283 6.325205 0.019177
v -0.049135 6.325205 0.009776
v -0.050098 6.325205 0.000000
v -0.049135 6.325205 -0.009776
v -0.046283 6.325205 -0.019177
v -0.041653 6.325205 -0.027840
v -0.035421 6.325205 -0.035434
v -0.027827 6.325205 -0.041666
v -0.019163 6.325205 -0.046297
v -0.009763 6.325205 -0.049149
vt 0.013911 0.241987
vt 0.248751 0.240209
vt 0.013926 0.243209
vt 0.228639 0.287117
vt 0.016298 0.286028
vt 0.016281 0.284806
vt 0.016229 0.295358
vt 0.250857 0.299134
vt 0.016196 0.296580
vt 0.248766 0.241248
vt 0.013941 0.244248
vt 0.250831 0.300492
vt 0.016170 0.297937
vt 0.463325 0.292250
vt 0.228656 0.288340
vt 0.463316 0.290892
vt 0.463236 0.299182
vt 0.228609 0.295408
vt 0.463269 0.297960
vt 0.016152 0.299379
vt 0.250812 0.301933
vt 0.463300 0.289670
vt 0.228635 0.294050
vt 0.463296 0.296602
vt 0.250802 0.303403
vt 0.016142 0.300848
vt 0.228615 0.286078
vt 0.463276 0.288630
vt 0.228654 0.292609
vt 0.463314 0.295161
vt 0.250801 0.304844
vt 0.016141 0.302290
vt 0.228653 0.285038
vt 0.463313 0.287591
vt 0.228663 0.291139
vt 0.463324 0.293691
vt 0.250809 0.306202
vt 0.016149 0.303648
vt 0.228687 0.283816
vt 0.463347 0.286369
vt 0.228664 0.289698
vt 0.250826 0.307424
vt 0.016166 0.304870
vt 0.228712 0.282459
vt 0.463373 0.285012
vt 0.013851 0.233697
vt 0.248681 0.231919
vt 0.013856 0.234919
vt 0.228731 0.281017
vt 0.463391 0.283571
vt 0.248688 0.233277
vt 0.013863 0.236277
vt 0.228740 0.279548
vt 0.463401 0.282101
vt 0.248698 0.234719
vt 0.013872 0.237719
vt 0.228741 0.278106
vt 0.463402 0.280659
vt 0.248709 0.236188
vt 0.013884 0.239188
vt 0.228734 0.276748
vt 0.463394 0.279302
vt 0.248722 0.237630
vt 0.013897 0.240630
vt 0.228717 0.275526
vt 0.463377 0.278079
vt 0.248736 0.238987
vt 0.016268 0.294319
vt 0.250890 0.297912
vt 0.521474 0.249723
vt 0.518399 0.261874
vt 0.512645 0.255958
vt 0.016250 0.293096
vt 0.016276 0.291738
vt 0.463161 0.305712
vt 0.639881 0.700448
vt 0.639068 0.429500
vt 0.639882 0.429460
vt 0.016295 0.290297
vt 0.463160 0.307154
vt 0.640696 0.429500
vt 0.640696 0.700488
vt 0.016305 0.288827
vt 0.463168 0.308512
vt 0.641654 0.429532
vt 0.641654 0.700520
vt 0.016305 0.287386
vt 0.463185 0.309734
vt 0.642718 0.700541
vt 0.642718 0.429553
vt 0.248677 0.230697
vt 0.461189 0.229204
vt 0.016372 0.278707
vt 0.461196 0.230562
vt 0.016382 0.277237
vt 0.461205 0.232003
vt 0.016383 0.275795
vt 0.461217 0.233473
vt 0.016375 0.274438
vt 0.461230 0.234914
vt 0.016358 0.273215
vt 0.461244 0.236272
vt 0.250928 0.296874
vt 0.463248 0.300222
vt 0.461259 0.237494
vt 0.463215 0.301444
vt 0.461274 0.238533
vt 0.463189 0.302801
vt 0.228576 0.296629
vt 0.463171 0.304243
vt 0.512469 0.254135
vt 0.512991 0.248657
vt 0.512469 0.252264
vt 0.512645 0.250414
vt 0.513494 0.247062
vt 0.514133 0.245688
vt 0.514885 0.244589
vt 0.515720 0.243807
vt 0.516607 0.243373
vt 0.517512 0.243302
vt 0.518399 0.243598
vt 0.519234 0.244249
vt 0.519986 0.245230
vt 0.520625 0.246504
vt 0.521128 0.248021
vt 0.521650 0.251546
vt 0.521650 0.253417
vt 0.521474 0.255267
vt 0.521128 0.257024
vt 0.520625 0.258619
vt 0.519986 0.259993
vt 0.519234 0.261092
vt 0.517512 0.262308
vt 0.514885 0.261432
vt 0.516607 0.262379
vt 0.515720 0.262083
vt 0.514133 0.260451
vt 0.513494 0.259177
vt 0.512991 0.257660
vt 0.639067 0.700488
vt 0.461185 0.227982
vt 0.016354 0.280148
vt 0.463287 0.299183
vt 0.016217 0.294318
vn -0.9569 0.0000 -0.2903
vn 0.2903 -0.0000 -0.9569
vn 0.6344 -0.0000 0.7730
vn -0.8819 0.0000 -0.4714
vn 0.4714 -0.0000 0.8819
vn 0.0980 -0.0000 -0.9952
vn -0.7730 0.0000 -0.6344
vn 0.2903 -0.0000 0.9569
vn -0.6344 0.0000 -0.7730
vn 0.0980 -0.0000 0.9952
vn 0.4714 -0.0000 -0.8819
vn -0.4714 0.0000 -0.8819
vn -0.0980 0.0000 0.9952
vn 0.6344 -0.0000 -0.7730
vn -0.2903 0.0000 -0.9569
vn -0.2903 0.0000 0.9569
vn 0.7730 -0.0000 -0.6344
vn -0.0980 0.0000 -0.9952
vn -0.4714 0.0000 0.8819
vn 0.8819 -0.0000 -0.4714
vn -0.6344 0.0000 0.7730
vn 0.9569 -0.0000 -0.2903
vn -0.7730 0.0000 0.6344
vn 0.9952 -0.0000 -0.0980
vn -0.8819 0.0000 0.4714
vn 0.9952 -0.0000 0.0980
vn -0.9569 0.0000 0.2903
vn 0.9569 -0.0000 0.2903
vn -0.9952 0.0000 0.0980
vn 0.8819 -0.0000 0.4714
vn -0.9952 0.0000 -0.0980
vn 0.7730 -0.0000 0.6344
vn 0.0000 1.0000 0.0000
vn 0.0000 -1.0000 0.0000
vn 0.0000 1.0000 -0.0003
vn 0.0000 1.0000 0.0003
vn 0.0000 1.0000 -0.0008
vn 0.0000 1.0000 -0.0004
vn 0.0000 1.0000 0.0002
vn 0.0000 1.0000 -0.0001
vn 0.0000 1.0000 0.0001
vn 0.0000 -1.0000 -0.0001
vn 0.0000 -1.0000 -0.0002
vn 0.0000 -1.0000 0.0001
vn 0.0000 -1.0000 0.0002
vn 0.0000 -1.0000 -0.0006
usemtl Material
s off
f 26/1/1 59/2/1 27/3/1
f 35/4/2 65/5/2 67/6/2
f 13/7/3 46/8/3 14/9/3
f 27/3/4 60/10/4 28/11/4
f 14/9/5 47/12/5 15/13/5
f 1/14/6 33/15/6 2/16/6
f 28/17/7 61/18/7 29/19/7
f 16/20/8 47/12/8 48/21/8
f 2/16/2 35/4/2 3/22/2
f 29/19/9 62/23/9 30/24/9
f 16/20/10 49/25/10 17/26/10
f 3/22/11 36/27/11 4/28/11
f 30/24/12 63/29/12 31/30/12
f 17/26/13 50/31/13 18/32/13
f 4/28/14 37/33/14 5/34/14
f 31/30/15 64/35/15 32/36/15
f 18/32/16 51/37/16 19/38/16
f 5/34/17 38/39/17 6/40/17
f 32/36/18 34/41/18 1/14/18
f 19/38/19 52/42/19 20/43/19
f 6/40/20 39/44/20 7/45/20
f 20/46/21 53/47/21 21/48/21
f 7/45/22 40/49/22 8/50/22
f 21/48/23 54/51/23 22/52/23
f 8/50/24 41/53/24 9/54/24
f 22/52/25 55/55/25 23/56/25
f 9/54/26 42/57/26 10/58/26
f 23/56/27 56/59/27 24/60/27
f 10/58/28 43/61/28 11/62/28
f 24/60/29 57/63/29 25/64/29
f 11/62/30 44/65/30 12/66/30
f 25/64/31 58/67/31 26/1/31
f 12/68/32 45/69/32 13/7/32
f 83/70/33 75/71/33 67/72/33
f 62/23/9 93/73/9 94/74/9
f 48/21/10 81/75/10 49/25/10
f 36/76/11 67/77/11 68/78/11
f 63/29/12 94/74/12 95/79/12
f 49/25/13 82/80/13 50/31/13
f 36/76/14 69/81/14 37/82/14
f 64/35/15 95/79/15 96/83/15
f 50/31/16 83/84/16 51/37/16
f 37/82/17 70/85/17 38/86/17
f 64/35/18 66/87/18 34/41/18
f 51/37/19 84/88/19 52/42/19
f 39/89/20 70/85/20 71/90/20
f 52/91/21 85/92/21 53/47/21
f 39/44/22 72/93/22 40/49/22
f 53/47/23 86/94/23 54/51/23
f 40/49/24 73/95/24 41/53/24
f 54/51/25 87/96/25 55/55/25
f 41/53/26 74/97/26 42/57/26
f 55/55/27 88/98/27 56/59/27
f 42/57/28 75/99/28 43/61/28
f 56/59/29 89/100/29 57/63/29
f 43/61/30 76/101/30 44/65/30
f 57/63/31 90/102/31 58/67/31
f 44/103/32 77/104/32 45/69/32
f 59/2/1 90/102/1 91/105/1
f 45/69/3 78/106/3 46/8/3
f 60/10/4 91/105/4 92/107/4
f 46/8/5 79/108/5 47/12/5
f 33/15/6 66/87/6 65/5/6
f 60/109/7 93/73/7 61/18/7
f 47/12/8 80/110/8 48/21/8
f 17/26/34 25/64/34 1/14/34
f 26/1/1 58/67/1 59/2/1
f 35/4/2 33/15/2 65/5/2
f 13/7/3 45/69/3 46/8/3
f 27/3/4 59/2/4 60/10/4
f 14/9/5 46/8/5 47/12/5
f 1/14/6 34/41/6 33/15/6
f 28/17/7 60/109/7 61/18/7
f 16/20/8 15/13/8 47/12/8
f 2/16/2 33/15/2 35/4/2
f 29/19/9 61/18/9 62/23/9
f 16/20/10 48/21/10 49/25/10
f 3/22/11 35/4/11 36/27/11
f 30/24/12 62/23/12 63/29/12
f 17/26/13 49/25/13 50/31/13
f 4/28/14 36/27/14 37/33/14
f 31/30/15 63/29/15 64/35/15
f 18/32/16 50/31/16 51/37/16
f 5/34/17 37/33/17 38/39/17
f 32/36/18 64/35/18 34/41/18
f 19/38/19 51/37/19 52/42/19
f 6/40/20 38/39/20 39/44/20
f 20/46/21 52/91/21 53/47/21
f 7/45/22 39/44/22 40/49/22
f 21/48/23 53/47/23 54/51/23
f 8/50/24 40/49/24 41/53/24
f 22/52/25 54/51/25 55/55/25
f 9/54/26 41/53/26 42/57/26
f 23/56/27 55/55/27 56/59/27
f 10/58/28 42/57/28 43/61/28
f 24/60/29 56/59/29 57/63/29
f 11/62/30 43/61/30 44/65/30
f 25/64/31 57/63/31 58/67/31
f 12/68/32 44/103/32 45/69/32
f 67/72/35 65/111/35 95/112/35
f 65/111/36 66/113/36 95/112/36
f 66/113/37 96/114/37 95/112/37
f 95/112/33 94/115/33 93/116/33
f 93/116/33 92/117/33 95/112/33
f 92/117/33 91/118/33 95/112/33
f 91/118/33 90/119/33 89/120/33
f 89/120/33 88/121/33 87/122/33
f 87/122/38 86/123/38 85/124/38
f 85/124/33 84/125/33 83/70/33
f 83/70/33 82/126/33 81/127/33
f 81/127/33 80/128/33 79/129/33
f 79/129/38 78/130/38 77/131/38
f 77/131/39 76/132/39 75/71/39
f 75/71/33 74/133/33 71/134/33
f 74/133/33 73/135/33 71/134/33
f 73/135/33 72/136/33 71/134/33
f 71/134/33 70/137/33 69/138/33
f 69/138/33 68/139/33 67/72/33
f 91/118/33 89/120/33 87/122/33
f 87/122/33 85/124/33 91/118/33
f 85/124/33 83/70/33 91/118/33
f 83/70/40 81/127/40 75/71/40
f 81/127/41 79/129/41 75/71/41
f 79/129/33 77/131/33 75/71/33
f 71/134/33 69/138/33 75/71/33
f 69/138/33 67/72/33 75/71/33
f 67/72/33 95/112/33 83/70/33
f 95/112/33 91/118/33 83/70/33
f 62/23/9 61/18/9 93/73/9
f 48/21/10 80/110/10 81/75/10
f 36/76/11 35/140/11 67/77/11
f 63/29/12 62/23/12 94/74/12
f 49/25/13 81/75/13 82/80/13
f 36/76/14 68/78/14 69/81/14
f 64/35/15 63/29/15 95/79/15
f 50/31/16 82/80/16 83/84/16
f 37/82/17 69/81/17 70/85/17
f 64/35/18 96/83/18 66/87/18
f 51/37/19 83/84/19 84/88/19
f 39/89/20 38/86/20 70/85/20
f 52/91/21 84/141/21 85/92/21
f 39/44/22 71/142/22 72/93/22
f 53/47/23 85/92/23 86/94/23
f 40/49/24 72/93/24 73/95/24
f 54/51/25 86/94/25 87/96/25
f 41/53/26 73/95/26 74/97/26
f 55/55/27 87/96/27 88/98/27
f 42/57/28 74/97/28 75/99/28
f 56/59/29 88/98/29 89/100/29
f 43/61/30 75/99/30 76/101/30
f 57/63/31 89/100/31 90/102/31
f 44/103/32 76/143/32 77/104/32
f 59/2/1 58/67/1 90/102/1
f 45/69/3 77/104/3 78/106/3
f 60/10/4 59/2/4 91/105/4
f 46/8/5 78/106/5 79/108/5
f 33/15/6 34/41/6 66/87/6
f 60/109/7 92/144/7 93/73/7
f 47/12/8 79/108/8 80/110/8
f 1/14/34 2/16/34 5/34/34
f 2/16/42 3/22/42 5/34/42
f 3/22/43 4/28/43 5/34/43
f 5/34/44 6/40/44 7/45/44
f 7/45/34 8/50/34 5/34/34
f 8/50/34 9/54/34 5/34/34
f 9/54/34 10/58/34 13/7/34
f 10/58/34 11/62/34 13/7/34
f 11/62/34 12/66/34 13/7/34
f 13/7/42 14/9/42 17/26/42
f 14/9/44 15/13/44 17/26/44
f 15/13/45 16/20/45 17/26/45
f 17/26/46 18/32/46 19/38/46
f 19/38/34 20/43/34 17/26/34
f 20/43/44 21/48/44 17/26/44
f 21/48/34 22/52/34 25/64/34
f 22/52/34 23/56/34 25/64/34
f 23/56/34 24/60/34 25/64/34
f 25/64/34 26/1/34 27/3/34
f 27/3/45 28/11/45 29/19/45
f 29/19/34 30/24/34 1/14/34
f 30/24/34 31/30/34 1/14/34
f 31/30/34 32/36/34 1/14/34
f 25/64/34 27/3/34 1/14/34
f 27/3/34 29/19/34 1/14/34
f 1/14/34 5/34/34 17/26/34
f 5/34/34 9/54/34 17/26/34
f 9/54/34 13/7/34 17/26/34
f 17/26/34 21/48/34 25/64/34
