# Blender v3.0.1 OBJ File: 'couch.blend'
# www.blender.org
mtllib couch_back.mtl
o Cube.001_Cube.008
v -2.021080 -1.159683 2.175200
v -2.021080 2.134999 2.175200
v 2.034199 -1.159683 2.175200
v 2.034199 2.134999 2.175200
v -2.559358 -1.159683 2.175200
v -2.559358 2.197503 2.175200
v 2.559356 2.197503 2.175200
v 2.559356 -1.159683 2.175200
v -2.559358 2.240515 2.175200
v 2.559356 2.240515 2.175200
v -2.147885 2.240515 2.175200
v -2.021080 2.134999 2.175200
v 2.034199 2.134999 2.175200
v 2.161004 2.240515 2.175200
v -2.021080 -1.159683 3.474812
v -2.021080 -1.133116 3.498905
v -2.021080 -1.156123 3.487822
v -2.021080 -1.146399 3.496640
v -2.021080 2.108433 3.177831
v -2.021080 2.134999 3.148504
v -2.021080 2.134999 3.175200
v -2.047598 2.138078 3.175200
v -2.021080 2.121716 3.172939
v -2.021080 2.131440 3.162205
v 2.034199 -1.159683 3.474812
v 2.034199 -1.133116 3.498905
v 2.034199 -1.156123 3.487822
v 2.034199 -1.146399 3.496640
v 2.034199 2.134999 3.148504
v 2.034199 2.108433 3.177831
v 2.060709 2.138154 3.175200
v 2.034199 2.134999 3.175200
v 2.034199 2.131440 3.162205
v 2.034199 2.121716 3.172939
v -2.532661 -1.133112 3.498954
v -2.559358 -1.159683 3.474811
v -2.546009 -1.146397 3.496665
v -2.555781 -1.156123 3.487828
v -2.532662 2.194403 3.175200
v -2.559358 2.197503 3.148476
v -2.546010 2.195953 3.171620
v -2.555781 2.197087 3.161838
v 2.532659 -1.133112 3.498954
v 2.559356 -1.159683 3.474811
v 2.546008 -1.146397 3.496665
v 2.555779 -1.156123 3.487828
v 2.559356 2.197503 3.148476
v 2.532661 2.194325 3.175200
v 2.555779 2.197077 3.161838
v 2.546008 2.195914 3.171620
v -2.532662 2.213819 3.175200
v -2.559358 2.240515 3.148481
v -2.546010 2.227167 3.171620
v -2.555781 2.236938 3.161840
v 2.532661 2.213819 3.175200
v 2.559356 2.240515 3.148481
v 2.546008 2.227167 3.171620
v 2.555779 2.236938 3.161840
v -2.021080 2.134999 3.148484
v -2.021080 2.134999 3.175200
v -2.021080 2.134999 3.157389
v -2.021080 2.134999 3.166295
v -2.157539 2.213819 3.175200
v -2.147885 2.240515 3.148483
v -2.152712 2.227167 3.171621
v -2.149178 2.236939 3.161842
v 2.170658 2.213819 3.175200
v 2.161004 2.240515 3.148483
v 2.165831 2.227167 3.171621
v 2.162297 2.236939 3.161842
v 2.034199 2.134999 3.175200
v 2.034199 2.134999 3.148484
v 2.034199 2.134999 3.166295
v 2.034199 2.134999 3.157389
vt 0.625000 0.250000
vt 0.375000 0.250000
vt 0.625000 0.250000
vt 0.375000 0.500000
vt 0.375000 0.250000
vt 0.625000 0.006681
vt 0.375000 0.005037
vt 0.375000 0.744963
vt 0.373441 0.744963
vt 0.875000 0.750000
vt 0.875000 0.743326
vt 0.875000 0.745547
vt 0.625000 1.000000
vt 0.625000 1.000000
vt 0.625000 1.000000
vt 0.625000 0.250000
vt 0.622984 0.750000
vt 0.377016 1.000000
vt 0.377016 0.750000
vt 0.625000 0.250000
vt 0.625000 0.250000
vt 0.625000 0.743319
vt 0.625000 0.500000
vt 0.625000 0.743320
vt 0.625000 0.500000
vt 0.375000 0.500000
vt 0.625000 0.743326
vt 0.625000 0.743321
vt 0.625000 0.500000
vt 0.625000 0.500000
vt 0.376989 0.750000
vt 0.625000 0.750000
vt 0.875000 0.500000
vt 0.875000 0.743321
vt 0.875000 0.743321
vt 0.625000 0.750000
vt 0.625000 0.750000
vt 0.625000 0.750000
vt 0.875000 0.500000
vt 0.875000 0.743320
vt 0.625000 0.500000
vt 0.625000 0.743321
vt 0.875000 0.500000
vt 0.624019 1.000000
vt 0.624829 1.000000
vt 0.624019 0.750000
vt 0.625000 0.750000
vt 0.125815 0.747415
vt 0.126560 0.744963
vt 0.374185 0.747415
vt 0.125000 0.750000
vt 0.376035 0.750000
vt 0.376035 1.000000
vt 0.625000 0.746751
vt 0.625000 1.000000
vt 0.625000 0.750000
vt 0.376989 1.000000
vt 0.625026 1.000000
vt 0.376020 1.000000
vt 0.376015 0.000000
vt 0.624969 0.003346
vt 0.375265 0.002540
vt 0.125062 0.747416
vt 0.125000 0.744963
vt 0.125000 0.750000
vt 0.625013 0.750000
vt 0.376020 0.750000
vt 0.624984 0.746657
vt 0.375101 0.747438
vt 0.625000 0.003340
vt 0.625000 0.006680
vt 0.625000 1.000000
vt 0.625000 1.000000
vt 0.625000 1.000000
vt 0.625000 1.000000
vt 0.625000 0.746660
vt 0.625000 0.750000
vt 0.625000 0.750000
vt 0.625000 1.000000
vt 0.625000 1.000000
vt 0.625000 1.000000
vt 0.625000 1.000000
vt 0.875000 0.746660
vt 0.625000 0.749258
vt 0.625000 0.750000
vt 0.625000 0.745547
vt 0.625000 0.746660
vt 0.875000 0.746660
vt 0.622984 1.000000
vt 0.625000 1.000000
vt 0.125000 0.500000
vt 0.125000 0.500000
vt 0.875000 0.747774
vt 0.875000 0.750000
vt 0.625000 1.000000
vt 0.875000 0.500000
vt 0.625000 1.000000
vt 0.625195 0.750000
vt 0.624829 0.750000
vt 0.375000 0.750000
vt 0.875000 0.746751
vt 0.624911 0.000000
vn 0.0000 0.0000 -1.0000
vn -1.0000 0.0000 0.0000
vn 0.0000 -1.0000 0.0000
vn 0.0000 0.0000 1.0000
vn 0.0000 0.0986 0.9951
vn 1.0000 -0.0000 0.0000
vn 0.0000 1.0000 0.0000
vn -0.0114 0.0968 0.9952
vn 0.6396 0.7687 0.0000
vn -0.6396 0.7687 0.0000
vn 0.0200 -0.1678 0.9856
vn 0.0000 -0.9646 0.2639
vn 0.0000 -0.6718 0.7407
vn 0.0000 -0.1681 0.9858
vn 0.0000 0.9679 0.2514
vn 0.0000 0.7411 0.6714
vn 0.0000 0.3456 0.9384
vn -0.2580 0.0935 0.9616
vn -0.7058 0.0685 0.7051
vn -0.9657 0.0251 0.2585
vn -0.0000 -0.9646 0.2638
vn 0.0000 -0.6725 0.7401
vn 0.0000 -0.1698 0.9855
vn 0.2475 0.0938 0.9643
vn 0.7017 0.0690 0.7091
vn 0.9655 0.0252 0.2592
vn -0.0001 -0.1681 0.9858
vn -0.9660 -0.0000 0.2586
vn -0.7074 -0.0000 0.7068
vn -0.2591 -0.0000 0.9659
vn 0.9660 -0.0000 0.2586
vn 0.7075 -0.0000 0.7067
vn 0.2591 0.0000 0.9659
vn 0.1757 0.1952 0.9649
vn 0.4557 0.5419 0.7062
vn 0.6179 0.7425 0.2586
vn -0.5002 0.8659 -0.0000
vn -0.5736 0.8191 0.0000
vn -0.6227 0.7825 0.0000
vn -0.0000 0.2590 0.9659
vn -0.0000 0.7074 0.7068
vn -0.0000 0.9660 0.2586
vn 0.0112 0.0968 0.9952
vn -0.0117 0.0986 0.9951
vn -0.0001 0.0986 0.9951
vn 0.2814 0.3316 0.9004
vn 1.0000 -0.0001 0.0000
vn -0.0195 -0.1678 0.9856
vn -0.2824 0.3316 0.9002
vn -0.2477 0.0938 0.9643
vn -0.7018 0.0690 0.7090
vn -0.9655 0.0252 0.2592
vn 0.0001 -0.1681 0.9858
vn 0.2580 0.0935 0.9616
vn 0.7058 0.0685 0.7051
vn 0.9657 0.0251 0.2585
vn -0.7075 -0.0000 0.7067
vn 0.7075 -0.0000 0.7068
vn 0.5002 0.8659 0.0000
vn 0.5736 0.8191 -0.0000
vn 0.6227 0.7825 -0.0000
vn -0.1757 0.1952 0.9649
vn -0.4558 0.5419 0.7062
vn -0.6179 0.7425 0.2586
vn -0.0000 0.7074 0.7069
vn 0.0001 0.0986 0.9951
vn 0.0114 0.0986 0.9951
usemtl None
s off
f 2/1/1 5/2/1 6/3/1
f 2/1/1 3/4/1 1/5/1
f 40/6/2 5/2/2 36/7/2
f 44/8/3 25/9/3 3/4/3
f 21/10/3 20/11/3 61/12/3
f 22/13/4 21/14/4 63/15/4
f 40/6/2 9/16/2 6/3/2
f 30/17/5 16/18/5 26/19/5
f 6/3/1 11/20/1 12/21/1
f 47/22/6 10/23/6 56/24/6
f 4/25/1 8/26/1 3/4/1
f 4/25/7 29/27/7 72/28/7
f 14/29/1 10/23/1 7/30/1
f 30/17/8 43/31/8 48/32/8
f 8/26/6 47/22/6 44/8/6
f 12/33/9 64/34/9 59/35/9
f 67/36/4 71/37/4 31/38/4
f 14/29/7 56/24/7 10/23/7
f 11/39/7 52/40/7 64/34/7
f 13/41/10 68/42/10 14/29/10
f 2/43/7 29/27/7 4/25/7
f 23/44/6 24/45/6 21/14/6
f 34/46/11 31/38/11 32/47/11
f 25/9/12 17/48/12 15/49/12
f 27/50/13 18/51/13 17/48/13
f 28/52/14 16/18/14 18/53/14
f 20/11/15 33/54/15 29/27/15
f 24/55/16 34/46/16 33/56/16
f 23/44/17 30/17/17 34/46/17
f 35/57/18 41/58/18 37/59/18
f 37/60/19 42/61/19 38/62/19
f 38/62/20 40/6/20 36/7/20
f 15/49/21 38/63/21 36/64/21
f 17/48/22 37/65/22 38/63/22
f 18/53/23 35/57/23 37/59/23
f 43/31/24 50/66/24 48/32/24
f 45/67/25 49/68/25 50/66/25
f 46/69/26 47/22/26 49/68/26
f 25/9/12 46/69/12 27/50/12
f 27/50/13 45/67/13 28/52/13
f 28/52/27 43/31/27 26/19/27
f 40/6/28 54/70/28 52/71/28
f 42/72/29 53/73/29 54/74/29
f 41/58/30 51/75/30 53/73/30
f 47/22/31 58/76/31 49/68/31
f 49/68/32 57/77/32 50/66/32
f 50/66/33 55/78/33 48/32/33
f 63/15/34 62/79/34 65/80/34
f 65/80/35 61/81/35 66/82/35
f 66/83/36 59/35/36 64/34/36
f 67/36/37 73/84/37 71/37/37
f 69/85/38 74/86/38 73/84/38
f 70/87/39 72/28/39 74/86/39
f 51/75/40 65/80/40 53/73/40
f 53/73/41 66/82/41 54/74/41
f 54/88/42 64/34/42 52/40/42
f 55/78/40 69/85/40 67/36/40
f 57/77/41 70/87/41 69/85/41
f 58/76/42 68/42/42 70/87/42
f 19/89/43 39/90/43 35/57/43
f 2/1/1 1/5/1 5/2/1
f 2/1/1 4/25/1 3/4/1
f 40/6/2 6/3/2 5/2/2
f 25/9/3 15/49/3 3/4/3
f 15/49/3 36/64/3 1/91/3
f 3/4/3 15/49/3 1/91/3
f 36/64/3 5/92/3 1/91/3
f 3/4/3 8/26/3 44/8/3
f 2/43/4 12/33/4 59/35/4
f 20/11/4 2/43/4 59/35/4
f 62/93/4 60/94/4 21/10/4
f 20/11/4 59/35/4 61/12/4
f 61/12/7 62/93/7 21/10/7
f 51/75/4 39/90/4 63/15/4
f 39/90/4 22/13/4 63/15/4
f 21/14/4 60/95/4 63/15/4
f 40/6/2 52/71/2 9/16/2
f 30/17/5 19/89/5 16/18/5
f 12/21/4 2/1/4 6/3/4
f 6/3/1 9/16/1 11/20/1
f 47/22/6 7/30/6 10/23/6
f 4/25/1 7/30/1 8/26/1
f 32/47/4 71/37/4 73/84/4
f 32/47/3 73/84/3 74/86/3
f 29/27/4 32/47/4 74/86/4
f 72/28/4 13/41/4 4/25/4
f 29/27/4 74/86/4 72/28/4
f 7/30/4 4/25/4 13/41/4
f 13/41/1 14/29/1 7/30/1
f 48/32/44 31/38/44 30/17/44
f 30/17/45 26/19/45 43/31/45
f 8/26/6 7/30/6 47/22/6
f 12/33/9 11/39/9 64/34/9
f 71/37/4 32/47/4 31/38/4
f 31/38/4 48/32/4 67/36/4
f 48/32/4 55/78/4 67/36/4
f 14/29/7 68/42/7 56/24/7
f 11/39/7 9/96/7 52/40/7
f 13/41/10 72/28/10 68/42/10
f 2/43/7 20/11/7 29/27/7
f 22/13/46 19/89/46 23/44/46
f 24/45/47 20/97/47 21/14/47
f 22/13/48 23/44/48 21/14/48
f 32/47/2 29/98/2 33/99/2
f 34/46/49 30/17/49 31/38/49
f 32/47/2 33/99/2 34/46/2
f 25/9/12 27/50/12 17/48/12
f 27/50/13 28/100/13 18/51/13
f 28/52/14 26/19/14 16/18/14
f 20/11/15 24/101/15 33/54/15
f 24/55/16 23/44/16 34/46/16
f 23/44/17 19/89/17 30/17/17
f 35/57/50 39/90/50 41/58/50
f 37/60/51 41/102/51 42/61/51
f 38/62/52 42/61/52 40/6/52
f 15/49/12 17/48/12 38/63/12
f 17/48/13 18/51/13 37/65/13
f 18/53/53 16/18/53 35/57/53
f 43/31/54 45/67/54 50/66/54
f 45/67/55 46/69/55 49/68/55
f 46/69/56 44/8/56 47/22/56
f 25/9/21 44/8/21 46/69/21
f 27/50/22 46/69/22 45/67/22
f 28/52/23 45/67/23 43/31/23
f 40/6/28 42/61/28 54/70/28
f 42/72/57 41/58/57 53/73/57
f 41/58/30 39/90/30 51/75/30
f 47/22/31 56/24/31 58/76/31
f 49/68/58 58/76/58 57/77/58
f 50/66/33 57/77/33 55/78/33
f 63/15/59 60/95/59 62/79/59
f 65/80/60 62/79/60 61/81/60
f 66/83/61 61/12/61 59/35/61
f 67/36/62 69/85/62 73/84/62
f 69/85/63 70/87/63 74/86/63
f 70/87/64 68/42/64 72/28/64
f 51/75/40 63/15/40 65/80/40
f 53/73/65 65/80/65 66/82/65
f 54/88/42 66/83/42 64/34/42
f 55/78/40 57/77/40 69/85/40
f 57/77/41 58/76/41 70/87/41
f 58/76/42 56/24/42 68/42/42
f 35/57/66 16/18/66 19/89/66
f 19/89/67 22/13/67 39/90/67
