# Blender v3.0.1 OBJ File: 'couch.blend'
# www.blender.org
mtllib couch_cushion.mtl
o Cube_Cube.006
v -1.900000 -0.500000 1.078111
v -1.900000 0.500000 1.078111
v -1.900000 -0.500000 -0.421889
v -1.900000 0.500000 -0.421889
v 1.900000 -0.500000 1.078111
v 1.900000 0.500000 1.078111
v 1.900000 -0.500000 -0.421889
v 1.900000 0.500000 -0.421889
v -1.900000 0.000000 1.328111
v -1.900000 0.000000 -0.671889
v 1.900000 0.000000 -0.671889
v 1.900000 0.000000 1.328111
v -1.900000 0.250000 1.253111
v -1.900000 0.250000 -0.596889
v 1.900000 0.250000 -0.596889
v 1.900000 0.250000 1.253111
v -1.900000 -0.250000 -0.596889
v 1.900000 -0.250000 -0.596889
v 1.900000 -0.250000 1.253111
v -1.900000 -0.250000 1.253111
v -2.000000 -0.584347 -0.502465
v -2.000000 -0.584347 1.158687
v -2.000000 0.281173 1.395637
v -2.000000 0.584347 1.158687
v -2.000000 0.584347 -0.502465
v -2.000000 -0.281173 -0.739415
v 2.000000 -0.281173 -0.739415
v 2.000000 -0.584347 -0.502465
v 2.000000 -0.584347 1.158687
v 2.000000 0.584347 -0.502465
v 2.000000 0.584347 1.158687
v 2.000000 -0.281173 1.395637
v -2.000000 -0.281173 1.395637
v -2.000000 0.000000 1.478111
v -2.000000 0.281173 -0.739415
v -2.000000 0.000000 -0.821889
v 2.000000 0.281173 -0.739415
v 2.000000 0.000000 -0.821889
v 2.000000 0.281173 1.395637
v 2.000000 0.000000 1.478111
v -2.600000 -0.584347 -0.502465
v -2.600000 -0.584347 1.158687
v -2.600000 0.281173 1.395637
v -2.600000 0.584347 1.158687
v -2.600000 0.584347 -0.502465
v -2.600000 -0.281173 -0.739415
v 2.600000 -0.281173 -0.739415
v 2.600000 -0.584347 -0.502465
v 2.600000 -0.584347 1.158687
v 2.600000 0.584347 -0.502465
v 2.600000 0.584347 1.158687
v 2.600000 -0.281173 1.395637
v -2.600000 -0.281173 1.395637
v -2.600000 0.000000 1.478111
v -2.600000 0.281173 -0.739415
v -2.600000 0.000000 -0.821889
v 2.600000 0.281173 -0.739415
v 2.600000 0.000000 -0.821889
v 2.600000 0.281173 1.395637
v 2.600000 0.000000 1.478111
v -2.600000 0.584347 0.328111
v -2.600000 -0.584347 0.328111
v -2.680000 -0.574347 0.328111
v -2.640000 -0.584347 0.328111
v -2.668284 -0.581418 0.328111
v -2.640000 -0.584347 1.158687
v -2.680000 -0.574347 1.149589
v -2.668284 -0.581418 1.156022
v -2.680000 0.277835 1.381332
v -2.640000 0.281173 1.395637
v -2.668284 0.280195 1.391447
v -2.640000 0.584347 1.158687
v -2.680000 0.574347 1.149589
v -2.668284 0.581418 1.156022
v -2.680000 0.574347 0.328111
v -2.640000 0.584347 0.328111
v -2.668284 0.581418 0.328111
v -2.640000 0.584347 -0.502465
v -2.680000 0.574347 -0.493367
v -2.668284 0.581418 -0.499801
v -2.680000 -0.277835 -0.725110
v -2.640000 -0.281173 -0.739415
v -2.668284 -0.280195 -0.735225
v -2.640000 -0.584347 -0.502465
v -2.680000 -0.574347 -0.493367
v -2.668284 -0.581418 -0.499801
v 2.640000 -0.281173 -0.739415
v 2.680000 -0.277835 -0.725110
v 2.668284 -0.280195 -0.735225
v 2.680000 -0.574347 -0.493367
v 2.640000 -0.584347 -0.502465
v 2.668284 -0.581418 -0.499801
v 2.680000 -0.277835 1.381332
v 2.640000 -0.281173 1.395637
v 2.668284 -0.280195 1.391447
v 2.640000 -0.584347 1.158687
v 2.680000 -0.574347 1.149589
v 2.668284 -0.581418 1.156022
v -2.680000 -0.277835 1.381332
v -2.640000 -0.281173 1.395637
v -2.668284 -0.280195 1.391447
v -2.640000 0.000000 1.478111
v -2.680000 0.000000 1.462827
v -2.668284 0.000000 1.473634
v -2.680000 0.277835 -0.725110
v -2.640000 0.281173 -0.739415
v -2.668284 0.280195 -0.735225
v -2.640000 0.000000 -0.821889
v -2.680000 0.000000 -0.806605
v -2.668284 0.000000 -0.817412
v 2.640000 0.281173 -0.739415
v 2.680000 0.277835 -0.725110
v 2.668284 0.280195 -0.735225
v 2.680000 0.000000 -0.806605
v 2.640000 0.000000 -0.821889
v 2.668284 0.000000 -0.817412
v 2.680000 0.277835 1.381332
v 2.640000 0.281173 1.395637
v 2.668284 0.280195 1.391447
v 2.640000 0.000000 1.478111
v 2.680000 0.000000 1.462827
v 2.668284 0.000000 1.473634
v 2.640000 0.584347 -0.502465
v 2.680000 0.574347 -0.493367
v 2.668284 0.581418 -0.499801
v 2.680000 0.574347 1.149589
v 2.640000 0.584347 1.158687
v 2.668284 0.581418 1.156022
vt 0.625000 0.250000
vt 0.562500 0.500000
vt 0.562500 0.250000
vt 0.625000 0.750000
vt 0.625000 0.500000
vt 0.625000 0.500000
vt 0.562500 1.000000
vt 0.562500 0.750000
vt 0.375000 0.500000
vt 0.125000 0.750000
vt 0.125000 0.500000
vt 0.875000 0.500000
vt 0.500000 0.750000
vt 0.437500 1.000000
vt 0.437500 0.750000
vt 0.500000 0.250000
vt 0.437500 0.500000
vt 0.437500 0.250000
vt 0.500000 1.000000
vt 0.500000 0.500000
vt 0.375000 0.250000
vt 0.375000 1.000000
vt 0.375000 0.750000
vt 0.562500 0.750000
vt 0.625000 0.750000
vt 0.375000 0.750000
vt 0.562500 0.500000
vt 0.437500 0.500000
vt 0.375000 0.500000
vt 0.562500 0.250000
vt 0.625000 0.250000
vt 0.562500 1.000000
vt 0.500000 1.000000
vt 0.625000 0.750000
vt 0.625000 0.500000
vt 0.625000 0.500000
vt 0.437500 0.250000
vt 0.500000 0.250000
vt 0.562500 0.250000
vt 0.437500 0.500000
vt 0.562500 0.750000
vt 0.562500 0.500000
vt 0.500000 0.500000
vt 0.125000 0.750000
vt 0.125000 0.750000
vt 0.125000 0.625000
vt 0.375000 0.500000
vt 0.500000 0.750000
vt 0.500000 0.750000
vt 0.625000 1.000000
vt 0.562500 1.000000
vt 0.500000 0.250000
vt 0.875000 0.500000
vt 0.875000 0.500000
vt 0.875000 0.625000
vt 0.375000 0.750000
vt 0.437500 0.750000
vt 0.375000 0.250000
vt 0.437500 0.250000
vt 0.500000 1.000000
vt 0.500000 0.500000
vt 0.625000 0.250000
vt 0.437500 1.000000
vt 0.437500 1.000000
vt 0.375000 1.000000
vt 0.375000 1.000000
vt 0.125000 0.500000
vt 0.625000 1.000000
vt 0.875000 0.750000
vt 0.875000 0.750000
vt 0.437500 0.750000
vt 0.437500 0.500000
vt 0.125000 0.500000
vt 0.125000 0.500000
vt 0.562500 0.250000
vt 0.437500 0.750000
vt 0.375000 0.500000
vt 0.500000 0.500000
vt 0.500000 0.001211
vt 0.622866 0.125000
vt 0.377134 0.125000
vt 0.875000 0.625000
vt 0.375000 0.750000
vt 0.562500 0.500000
vt 0.500000 1.000000
vt 0.375000 1.000000
vt 0.437500 1.000000
vt 0.625000 0.750000
vt 0.625000 0.250000
vt 0.625000 1.000000
vt 0.562500 1.000000
vt 0.875000 0.750000
vt 0.875000 0.750000
vt 0.500000 0.250000
vt 0.375000 0.250000
vt 0.437500 0.250000
vt 0.561670 0.501315
vt 0.622901 0.502001
vt 0.622901 0.747999
vt 0.562500 0.750000
vt 0.500000 0.750000
vt 0.125000 0.625000
vt 0.125000 0.749599
vt 0.125000 0.625000
vt 0.375000 0.125000
vt 0.377099 0.002001
vt 0.624675 1.000000
vt 0.562577 1.000000
vt 0.562577 0.000000
vt 0.622901 0.002001
vt 0.561670 0.001315
vt 0.875000 0.500401
vt 0.875000 0.625000
vt 0.625000 0.125000
vt 0.622901 0.247999
vt 0.375325 0.250000
vt 0.437507 0.250000
vt 0.377099 0.247999
vt 0.438330 0.248685
vt 0.377099 0.502001
vt 0.437507 0.500000
vt 0.438330 0.501315
vt 0.375162 0.500201
vt 0.375162 0.749799
vt 0.437507 0.750000
vt 0.377100 0.747999
vt 0.438330 0.748685
vt 0.499875 1.000000
vt 0.437592 1.000000
vt 0.437592 0.000000
vt 0.438330 0.001315
vt 0.500000 0.250000
vt 0.562492 0.250000
vt 0.500000 0.248789
vt 0.561670 0.248685
vt 0.500000 0.501211
vt 0.562492 0.500000
vt 0.500000 0.500000
vt 0.500000 0.750000
vt 0.562492 0.750000
vt 0.500000 0.748789
vt 0.561670 0.748685
vt 0.500125 1.000000
vt 0.562408 0.000000
vt 0.500125 0.000000
vt 0.624675 0.250000
vt 0.624838 0.500201
vt 0.624838 0.749799
vt 0.375325 1.000000
vt 0.437423 0.000000
vt 0.375325 0.000000
vt 0.875000 0.749599
vt 0.625000 0.000401
vt 0.125000 0.500401
vt 0.375000 0.249599
vt 0.875000 0.500000
vt 0.625000 1.000000
vt 0.375000 0.250000
vt 0.125000 0.750000
vt 0.375000 0.000401
vt 0.624675 0.000000
vt 0.625000 0.249599
vt 0.499875 0.000000
vt 0.562408 1.000000
vt 0.437423 1.000000
vn 0.0000 0.5735 -0.8192
vn -0.6447 0.7644 0.0000
vn 0.0000 0.5735 0.8192
vn 0.0000 -1.0000 0.0000
vn 0.0000 1.0000 0.0000
vn 0.0000 -0.2873 0.9578
vn 0.0000 -0.2873 -0.9578
vn 0.0000 0.2873 0.9578
vn 0.0000 0.2873 -0.9578
vn 0.0000 -0.5735 -0.8192
vn 0.0000 -0.5735 0.8192
vn -0.7558 0.4032 0.5159
vn -0.6447 -0.7644 0.0000
vn -0.8028 0.3419 -0.4885
vn -0.7558 -0.4032 -0.5159
vn 0.7558 0.4032 -0.5159
vn 0.8213 0.1606 0.5475
vn 0.8028 -0.3419 -0.4885
vn 0.0000 0.2815 -0.9596
vn 0.0000 0.6158 -0.7879
vn 0.0000 -0.6158 -0.7879
vn 0.0000 0.6158 0.7879
vn 0.0000 0.2815 0.9596
vn 0.0000 -0.2815 -0.9596
vn 0.0000 -0.6158 0.7879
vn 0.0000 -0.2815 0.9596
vn -0.8028 -0.3419 0.4885
vn 0.8213 -0.1606 -0.5475
vn -0.8241 -0.1628 -0.5426
vn 0.8241 -0.1628 0.5426
vn -0.8213 -0.1606 0.5475
vn 0.8241 0.1628 -0.5426
vn 0.6447 -0.7644 0.0000
vn 0.7558 -0.4032 0.5159
vn -0.8213 0.1606 -0.5475
vn 0.8028 0.3419 0.4885
vn -0.8241 0.1628 0.5426
vn 0.6447 0.7644 0.0000
vn -1.0000 0.0000 0.0000
vn 1.0000 0.0000 0.0000
vn -0.1030 -0.9947 0.0000
vn -0.5167 -0.8561 0.0000
vn -0.1367 0.6100 0.7805
vn -0.6267 0.4799 0.6139
vn -0.1030 0.9947 0.0000
vn -0.5167 0.8562 0.0000
vn -0.1367 -0.6100 -0.7805
vn -0.6267 -0.4799 -0.6139
vn 0.6268 -0.4798 -0.6139
vn 0.1367 -0.6100 -0.7805
vn 0.1367 -0.6100 0.7805
vn 0.6267 -0.4799 0.6139
vn -0.1501 -0.2783 0.9487
vn -0.6628 -0.2108 0.7185
vn -0.1502 0.2783 -0.9487
vn -0.6628 0.2108 -0.7185
vn 0.6628 0.2108 -0.7185
vn 0.1502 0.2783 -0.9487
vn 0.1501 0.2783 0.9487
vn 0.6628 0.2108 0.7185
vn -0.1501 0.2783 0.9487
vn -0.6628 0.2108 0.7185
vn -0.1367 0.6100 -0.7805
vn -0.6268 0.4798 -0.6140
vn 0.6268 0.4798 -0.6140
vn 0.1367 0.6100 -0.7805
vn 0.1367 0.6100 0.7805
vn 0.6268 0.4798 0.6139
vn -0.1502 -0.2783 -0.9487
vn -0.6628 -0.2107 -0.7185
vn 0.6628 -0.2107 -0.7185
vn 0.1502 -0.2783 -0.9487
vn 0.1501 -0.2783 0.9487
vn 0.6628 -0.2108 0.7185
vn -0.1367 -0.6100 0.7805
vn -0.6268 -0.4798 0.6139
vn 0.1030 0.9947 0.0000
vn 0.5167 0.8561 0.0000
vn 0.1030 -0.9947 0.0000
vn 0.5167 -0.8561 0.0000
vn -0.5167 0.8561 0.0000
vn -0.5168 -0.8561 0.0000
vn -0.8028 0.3419 0.4885
vn -0.7558 0.4032 -0.5159
vn -0.8028 -0.3419 -0.4885
vn 0.8028 0.3419 -0.4885
vn 0.8241 0.1628 0.5426
vn 0.7558 -0.4032 -0.5159
vn -0.7558 -0.4032 0.5159
vn 0.8241 -0.1628 -0.5426
vn -0.8213 -0.1606 -0.5475
vn 0.8213 -0.1606 0.5475
vn -0.8241 -0.1628 0.5426
vn 0.8213 0.1606 -0.5475
vn 0.8028 -0.3419 0.4885
vn -0.8241 0.1628 -0.5426
vn 0.7558 0.4032 0.5159
vn -0.8213 0.1606 0.5475
vn -0.6268 0.4798 0.6139
vn -0.5168 0.8561 0.0000
vn -0.6268 -0.4798 -0.6140
vn 0.6268 -0.4798 -0.6140
vn 0.6268 -0.4798 0.6139
vn -0.6628 0.2107 -0.7185
vn 0.6628 0.2107 -0.7185
vn -0.6267 0.4799 -0.6139
vn 0.6268 0.4798 -0.6139
vn 0.6267 0.4799 0.6139
vn -0.6628 -0.2108 -0.7185
vn 0.6628 -0.2108 -0.7185
vn -0.6267 -0.4799 0.6139
vn 0.5167 0.8562 0.0000
vn 0.5167 -0.8562 0.0000
vn -0.5167 -0.8562 0.0000
usemtl None
s off
f 4/1/1 15/2/1 14/3/1
f 6/4/2 30/5/2 8/6/2
f 6/4/3 13/7/3 16/8/3
f 7/9/4 1/10/4 3/11/4
f 4/12/5 6/4/5 8/6/5
f 12/13/6 20/14/6 19/15/6
f 10/16/7 18/17/7 17/18/7
f 16/8/8 9/19/8 12/13/8
f 14/3/9 11/20/9 10/16/9
f 17/18/10 7/9/10 3/21/10
f 19/15/11 1/22/11 5/23/11
f 6/4/12 39/24/12 31/25/12
f 7/9/13 29/26/13 5/23/13
f 8/6/14 37/27/14 15/2/14
f 7/9/15 27/28/15 28/29/15
f 4/1/16 35/30/16 25/31/16
f 9/19/17 23/32/17 34/33/17
f 51/34/5 123/35/5 50/36/5
f 3/21/18 26/37/18 17/18/18
f 36/38/19 55/39/19 35/30/19
f 50/36/20 37/27/20 30/5/20
f 47/40/21 28/29/21 27/28/21
f 59/41/22 31/25/22 39/24/22
f 57/42/19 38/43/19 37/27/19
f 22/44/4 42/45/4 62/46/4
f 48/47/4 29/26/4 28/29/4
f 60/48/23 39/24/23 40/49/23
f 24/50/22 43/51/22 23/32/22
f 51/34/5 30/5/5 31/25/5
f 26/37/24 56/52/24 36/38/24
f 25/53/5 45/54/5 61/55/5
f 49/56/25 32/57/25 29/26/25
f 21/58/21 46/59/21 26/37/21
f 23/32/23 54/60/23 34/33/23
f 58/61/24 27/28/24 38/43/24
f 35/30/20 45/62/20 25/31/20
f 34/33/26 53/63/26 33/64/26
f 33/64/25 42/65/25 22/66/25
f 5/23/27 32/57/27 19/15/27
f 10/16/28 26/37/28 36/38/28
f 11/20/29 27/28/29 18/17/29
f 9/19/30 33/64/30 20/14/30
f 12/13/31 32/57/31 40/49/31
f 10/16/32 35/30/32 14/3/32
f 1/10/33 21/67/33 3/11/33
f 1/22/34 33/64/34 22/66/34
f 11/20/35 37/27/35 38/43/35
f 2/68/36 23/32/36 13/7/36
f 12/13/37 39/24/37 16/8/37
f 4/12/38 24/69/38 2/70/38
f 52/71/26 40/49/26 32/57/26
f 58/61/24 87/72/24 47/40/24
f 62/46/4 84/73/4 41/74/4
f 56/52/19 106/75/19 55/39/19
f 49/56/25 94/76/25 52/71/25
f 47/40/21 91/77/21 48/47/21
f 57/42/19 115/78/19 58/61/19
f 103/79/39 75/80/39 63/81/39
f 45/54/5 76/82/5 61/55/5
f 48/47/4 96/83/4 49/56/4
f 50/36/20 111/84/20 57/42/20
f 43/51/23 102/85/23 54/60/23
f 53/63/25 66/86/25 42/65/25
f 54/60/26 100/87/26 53/63/26
f 59/41/22 127/88/22 51/34/22
f 55/39/20 78/89/20 45/62/20
f 44/90/22 70/91/22 43/51/22
f 61/55/5 72/92/5 44/93/5
f 46/59/24 108/94/24 56/52/24
f 41/95/21 82/96/21 46/59/21
f 112/97/40 124/98/40 126/99/40
f 60/48/23 118/100/23 59/41/23
f 52/71/26 120/101/26 60/48/26
f 64/102/41 68/103/41 65/104/41
f 65/105/42 67/106/42 63/81/42
f 70/91/43 74/107/43 71/108/43
f 71/109/44 73/110/44 69/111/44
f 76/82/45 80/112/45 77/113/45
f 77/114/46 79/115/46 75/80/46
f 82/96/47 86/116/47 83/117/47
f 83/117/48 85/118/48 81/119/48
f 90/120/49 89/121/49 88/122/49
f 92/123/50 87/72/50 89/121/50
f 94/76/51 98/124/51 95/125/51
f 95/125/52 97/126/52 93/127/52
f 100/87/53 104/128/53 101/129/53
f 101/130/54 103/79/54 99/131/54
f 106/75/55 110/132/55 107/133/55
f 107/133/56 109/134/56 105/135/56
f 114/136/57 113/137/57 112/97/57
f 116/138/58 111/84/58 113/137/58
f 118/100/59 122/139/59 119/140/59
f 119/140/60 121/141/60 117/142/60
f 70/91/61 104/143/61 102/85/61
f 71/144/62 103/79/62 104/145/62
f 106/75/63 80/146/63 78/89/63
f 107/133/64 79/115/64 80/146/64
f 124/98/65 113/137/65 125/147/65
f 125/147/66 111/84/66 123/35/66
f 118/100/67 128/148/67 127/88/67
f 119/140/68 126/99/68 128/148/68
f 82/96/69 110/132/69 108/94/69
f 83/117/70 109/134/70 110/132/70
f 114/136/71 89/121/71 116/138/71
f 116/138/72 87/72/72 115/78/72
f 94/76/73 122/139/73 120/101/73
f 95/125/74 121/141/74 122/139/74
f 100/87/75 68/149/75 66/86/75
f 101/150/76 67/106/76 68/151/76
f 127/88/77 125/147/77 123/35/77
f 128/148/78 124/98/78 125/147/78
f 91/77/79 98/124/79 96/83/79
f 92/123/80 97/126/80 98/124/80
f 76/82/45 74/152/45 72/92/45
f 77/114/81 73/110/81 74/153/81
f 64/102/41 86/154/41 84/73/41
f 65/105/82 85/118/82 86/155/82
f 42/45/4 64/102/4 62/46/4
f 4/1/1 8/6/1 15/2/1
f 6/4/2 31/25/2 30/5/2
f 6/4/3 2/68/3 13/7/3
f 7/9/4 5/23/4 1/10/4
f 4/12/5 2/70/5 6/4/5
f 12/13/6 9/19/6 20/14/6
f 10/16/7 11/20/7 18/17/7
f 16/8/8 13/7/8 9/19/8
f 14/3/9 15/2/9 11/20/9
f 17/18/10 18/17/10 7/9/10
f 19/15/11 20/14/11 1/22/11
f 6/4/83 16/8/83 39/24/83
f 7/9/13 28/29/13 29/26/13
f 8/6/84 30/5/84 37/27/84
f 7/9/85 18/17/85 27/28/85
f 4/1/86 14/3/86 35/30/86
f 9/19/87 13/7/87 23/32/87
f 51/34/5 127/88/5 123/35/5
f 3/21/88 21/58/88 26/37/88
f 36/38/19 56/52/19 55/39/19
f 50/36/20 57/42/20 37/27/20
f 47/40/21 48/47/21 28/29/21
f 59/41/22 51/34/22 31/25/22
f 57/42/19 58/61/19 38/43/19
f 41/74/4 21/67/4 62/46/4
f 21/67/4 22/44/4 62/46/4
f 48/47/4 49/56/4 29/26/4
f 60/48/23 59/41/23 39/24/23
f 24/50/22 44/90/22 43/51/22
f 51/34/5 50/36/5 30/5/5
f 26/37/24 46/59/24 56/52/24
f 44/93/5 24/69/5 61/55/5
f 24/69/5 25/53/5 61/55/5
f 49/56/25 52/71/25 32/57/25
f 21/58/21 41/95/21 46/59/21
f 23/32/23 43/51/23 54/60/23
f 58/61/24 47/40/24 27/28/24
f 35/30/20 55/39/20 45/62/20
f 34/33/26 54/60/26 53/63/26
f 33/64/25 53/63/25 42/65/25
f 5/23/89 29/26/89 32/57/89
f 10/16/90 17/18/90 26/37/90
f 11/20/91 38/43/91 27/28/91
f 9/19/92 34/33/92 33/64/92
f 12/13/93 19/15/93 32/57/93
f 10/16/94 36/38/94 35/30/94
f 1/10/33 22/44/33 21/67/33
f 1/22/95 20/14/95 33/64/95
f 11/20/96 15/2/96 37/27/96
f 2/68/97 24/50/97 23/32/97
f 12/13/98 40/49/98 39/24/98
f 4/12/38 25/53/38 24/69/38
f 52/71/26 60/48/26 40/49/26
f 58/61/24 115/78/24 87/72/24
f 62/46/4 64/102/4 84/73/4
f 56/52/19 108/94/19 106/75/19
f 49/56/25 96/83/25 94/76/25
f 47/40/21 87/72/21 91/77/21
f 57/42/19 111/84/19 115/78/19
f 99/131/39 103/79/39 63/81/39
f 103/79/39 69/111/39 75/80/39
f 69/111/39 73/110/39 75/80/39
f 75/80/39 79/115/39 105/135/39
f 105/135/39 109/134/39 75/80/39
f 109/134/39 81/119/39 63/81/39
f 75/80/39 109/134/39 63/81/39
f 81/119/39 85/118/39 63/81/39
f 63/81/39 67/106/39 99/131/39
f 45/54/5 78/156/5 76/82/5
f 48/47/4 91/77/4 96/83/4
f 50/36/20 123/35/20 111/84/20
f 43/51/23 70/91/23 102/85/23
f 53/63/25 100/87/25 66/86/25
f 54/60/26 102/85/26 100/87/26
f 59/41/22 118/100/22 127/88/22
f 55/39/20 106/75/20 78/89/20
f 44/90/22 72/157/22 70/91/22
f 61/55/5 76/82/5 72/92/5
f 46/59/24 82/96/24 108/94/24
f 41/95/21 84/158/21 82/96/21
f 126/99/40 117/142/40 112/97/40
f 117/142/40 121/141/40 93/127/40
f 112/97/40 117/142/40 93/127/40
f 93/127/40 97/126/40 88/122/40
f 112/97/40 93/127/40 88/122/40
f 97/126/40 90/120/40 88/122/40
f 88/122/40 114/136/40 112/97/40
f 60/48/23 120/101/23 118/100/23
f 52/71/26 94/76/26 120/101/26
f 64/102/41 66/159/41 68/103/41
f 65/105/42 68/160/42 67/106/42
f 70/91/43 72/157/43 74/107/43
f 71/109/99 74/161/99 73/110/99
f 76/82/45 78/156/45 80/112/45
f 77/114/100 80/162/100 79/115/100
f 82/96/47 84/158/47 86/116/47
f 83/117/101 86/116/101 85/118/101
f 90/120/102 92/123/102 89/121/102
f 92/123/50 91/77/50 87/72/50
f 94/76/51 96/83/51 98/124/51
f 95/125/103 98/124/103 97/126/103
f 100/87/53 102/85/53 104/128/53
f 101/130/54 104/163/54 103/79/54
f 106/75/55 108/94/55 110/132/55
f 107/133/104 110/132/104 109/134/104
f 114/136/105 116/138/105 113/137/105
f 116/138/58 115/78/58 111/84/58
f 118/100/59 120/101/59 122/139/59
f 119/140/60 122/139/60 121/141/60
f 70/91/61 71/164/61 104/143/61
f 71/144/62 69/111/62 103/79/62
f 106/75/63 107/133/63 80/146/63
f 107/133/106 105/135/106 79/115/106
f 124/98/107 112/97/107 113/137/107
f 125/147/66 113/137/66 111/84/66
f 118/100/67 119/140/67 128/148/67
f 119/140/108 117/142/108 126/99/108
f 82/96/69 83/117/69 110/132/69
f 83/117/109 81/119/109 109/134/109
f 114/136/110 88/122/110 89/121/110
f 116/138/72 89/121/72 87/72/72
f 94/76/73 95/125/73 122/139/73
f 95/125/74 93/127/74 121/141/74
f 100/87/75 101/165/75 68/149/75
f 101/150/111 99/131/111 67/106/111
f 127/88/77 128/148/77 125/147/77
f 128/148/112 126/99/112 124/98/112
f 91/77/79 92/123/79 98/124/79
f 92/123/113 90/120/113 97/126/113
f 76/82/45 77/113/45 74/152/45
f 77/114/81 75/80/81 73/110/81
f 64/102/41 65/104/41 86/154/41
f 65/105/114 63/81/114 85/118/114
f 42/45/4 66/159/4 64/102/4
