# Blender v3.0.1 OBJ File: 'door.blend'
# www.blender.org
mtllib door_outer.mtl
o Cube.001_Cube.002
v 4.935252 -1.856239 0.619232
v 1.856239 -4.935252 0.619232
v 1.856239 4.935252 0.619232
v 4.935252 1.856239 0.619232
v -1.856239 -4.935252 0.619232
v -4.935252 -1.856239 0.619232
v -4.935252 1.856239 0.619232
v -1.856239 4.935252 0.619232
v 4.935252 -1.856239 -0.619230
v 1.856239 -4.935252 -0.619230
v 1.856239 4.935252 -0.619230
v 4.935252 1.856239 -0.619230
v -1.856239 -4.935252 -0.619230
v -4.935252 -1.856239 -0.619230
v -4.935252 1.856239 -0.619230
v -1.856239 4.935252 -0.619230
v 4.000000 1.504473 0.619232
v -1.504473 4.000000 0.619232
v -4.000000 -1.504473 0.619232
v 1.504473 -4.000000 0.619232
v 4.000000 -1.504473 0.619232
v 1.504473 4.000000 0.619232
v -4.000000 1.504473 0.619232
v -1.504473 -4.000000 0.619232
v 4.000000 1.504473 -0.619230
v 1.504473 -4.000000 -0.619230
v -4.000000 -1.504473 -0.619230
v -1.504473 4.000000 -0.619230
v -1.504473 -4.000000 -0.619230
v 4.000000 -1.504473 -0.619230
v -4.000000 1.504473 -0.619230
v 1.504473 4.000000 -0.619230
vt 0.452985 0.250000
vt 0.375000 0.327985
vt 0.461895 0.273688
vt 0.547015 0.500000
vt 0.625000 0.422015
vt 0.538105 0.476312
vt 0.547015 0.250000
vt 0.601312 0.336895
vt 0.538105 0.273688
vt 0.452985 0.500000
vt 0.375000 0.422015
vt 0.461895 0.476312
vt 0.625000 0.422015
vt 0.375000 0.422015
vt 0.547015 0.250000
vt 0.452985 0.250000
vt 0.375000 0.327985
vt 0.452985 0.500000
vt 0.625000 0.327985
vt 0.625000 0.327985
vt 0.547015 0.500000
vt 0.452985 0.669643
vt 0.547015 0.556231
vt 0.452985 0.556231
vt 0.797015 0.669643
vt 0.702985 0.556231
vt 0.702985 0.669643
vt 0.452985 0.080357
vt 0.547015 0.193769
vt 0.547015 0.080357
vt 0.125000 0.669643
vt 0.202985 0.556231
vt 0.125000 0.556231
vt 0.625000 0.193769
vt 0.625000 0.080357
vt 0.297015 0.669643
vt 0.297015 0.556231
vt 0.547015 0.669643
vt 0.202985 0.669643
vt 0.601312 0.336895
vt 0.461895 0.476312
vt 0.398688 0.413105
vt 0.538105 0.273688
vt 0.398688 0.336895
vt 0.601312 0.413105
vt 0.461895 0.273688
vt 0.601312 0.413105
vt 0.398688 0.336895
vt 0.538105 0.476312
vt 0.398688 0.413105
vt 0.797015 0.556231
vt 0.452985 0.193769
vn 0.0000 0.0000 1.0000
vn 0.0000 0.0000 -1.0000
vn 0.7071 0.7071 0.0000
vn 0.0000 -1.0000 0.0000
vn -1.0000 0.0000 0.0000
vn -0.7071 -0.7071 0.0000
vn 0.7071 -0.7071 0.0000
vn 0.0000 1.0000 0.0000
vn -0.7071 0.7071 0.0000
vn 1.0000 0.0000 0.0000
usemtl None
s off
f 6/1/1 5/2/1 19/3/1
f 4/4/1 3/5/1 17/6/1
f 15/7/2 28/8/2 31/9/2
f 9/10/2 10/11/2 30/12/2
f 4/4/3 11/13/3 3/5/3
f 5/2/4 10/11/4 2/14/4
f 7/15/5 14/16/5 6/1/5
f 6/1/6 13/17/6 5/2/6
f 2/14/7 9/10/7 1/18/7
f 3/5/8 16/19/8 8/20/8
f 8/20/9 15/7/9 7/15/9
f 1/18/10 12/21/10 4/4/10
f 21/22/5 25/23/5 30/24/5
f 18/25/4 32/26/4 22/27/4
f 19/28/10 31/29/10 23/30/10
f 19/31/3 29/32/3 27/33/3
f 23/30/7 28/34/7 18/35/7
f 20/36/9 30/24/9 26/37/9
f 22/27/6 25/23/6 17/38/6
f 24/39/8 26/37/8 29/32/8
f 18/40/1 8/20/1 7/15/1
f 2/14/1 1/18/1 21/41/1
f 2/14/1 21/41/1 20/42/1
f 23/43/1 18/40/1 7/15/1
f 19/3/1 23/43/1 6/1/1
f 23/43/1 7/15/1 6/1/1
f 5/2/1 2/14/1 24/44/1
f 2/14/1 20/42/1 24/44/1
f 5/2/1 24/44/1 19/3/1
f 17/6/1 21/41/1 4/4/1
f 21/41/1 1/18/1 4/4/1
f 3/5/1 8/20/1 22/45/1
f 8/20/1 18/40/1 22/45/1
f 3/5/1 22/45/1 17/6/1
f 27/46/2 14/16/2 15/7/2
f 15/7/2 16/19/2 28/8/2
f 31/9/2 27/46/2 15/7/2
f 32/47/2 28/8/2 11/13/2
f 28/8/2 16/19/2 11/13/2
f 13/17/2 14/16/2 27/46/2
f 13/17/2 27/46/2 29/48/2
f 25/49/2 32/47/2 11/13/2
f 10/11/2 13/17/2 26/50/2
f 13/17/2 29/48/2 26/50/2
f 25/49/2 11/13/2 12/21/2
f 10/11/2 26/50/2 30/12/2
f 30/12/2 25/49/2 9/10/2
f 25/49/2 12/21/2 9/10/2
f 4/4/3 12/21/3 11/13/3
f 5/2/4 13/17/4 10/11/4
f 7/15/5 15/7/5 14/16/5
f 6/1/6 14/16/6 13/17/6
f 2/14/7 10/11/7 9/10/7
f 3/5/8 11/13/8 16/19/8
f 8/20/9 16/19/9 15/7/9
f 1/18/10 9/10/10 12/21/10
f 21/22/5 17/38/5 25/23/5
f 18/25/4 28/51/4 32/26/4
f 19/28/10 27/52/10 31/29/10
f 19/31/3 24/39/3 29/32/3
f 23/30/7 31/29/7 28/34/7
f 20/36/9 21/22/9 30/24/9
f 22/27/6 32/26/6 25/23/6
f 24/39/8 20/36/8 26/37/8
