# Blender v3.0.1 OBJ File: 'door.blend'
# www.blender.org
mtllib door_inner.mtl
o Cube_Cube.001
v -0.001094 2.910280 -0.141469
v -4.001094 -1.506417 0.142673
v -1.505567 -4.001944 0.142673
v 0.567053 2.854323 -0.141469
v -1.505567 3.998056 0.142673
v -4.001094 1.502530 0.142673
v -1.505567 -4.001944 -0.408332
v 1.113366 2.688601 -0.141469
v -4.001094 -1.506417 -0.408332
v -4.001094 1.502530 -0.408332
v 1.616851 2.419482 -0.141469
v -1.505567 3.998056 -0.408332
v 1.503379 -4.001944 0.142673
v 2.058159 2.057310 -0.141469
v 3.998906 -1.506417 0.142673
v 3.998906 1.502530 0.142673
v 2.420332 1.616002 -0.141469
v 1.503379 3.998056 0.142673
v 2.689450 1.112516 -0.141469
v 3.998906 -1.506417 -0.408332
v 1.503379 -4.001944 -0.408332
v 1.503379 3.998056 -0.408332
v 2.855172 0.566203 -0.141469
v 3.998906 1.502530 -0.408332
v 2.911130 -0.001944 -0.141469
v 2.855172 -0.570090 -0.141469
v 2.689450 -1.116403 -0.141469
v 2.420332 -1.619888 -0.141469
v 2.058159 -2.061197 -0.141469
v 1.616851 -2.423370 -0.141469
v 1.113366 -2.692488 -0.141469
v 0.567053 -2.858210 -0.141469
v -0.001094 -2.914168 -0.141469
v -0.569241 -2.858210 -0.141469
v -1.115554 -2.692488 -0.141469
v -1.619039 -2.423369 -0.141469
v -2.060347 -2.061197 -0.141469
v -2.422519 -1.619889 -0.141469
v -2.691638 -1.116404 -0.141469
v -2.857361 -0.570090 -0.141469
v -2.913318 -0.001943 -0.141469
v -2.857361 0.566203 -0.141469
v -2.691638 1.112517 -0.141469
v -2.422520 1.616001 -0.141469
v -2.060348 2.057310 -0.141469
v -1.619039 2.419482 -0.141469
v -1.115554 2.688601 -0.141469
v -0.569241 2.854323 -0.141469
v 2.689450 1.112516 0.142673
v -1.619039 -2.423369 0.142673
v 2.855172 0.566203 0.142673
v -2.060347 -2.061197 0.142673
v -2.422519 -1.619889 0.142673
v 2.911130 -0.001944 0.142673
v -2.691638 -1.116404 0.142673
v -2.857361 -0.570090 0.142673
v 2.855172 -0.570090 0.142673
v -0.569241 -2.858210 0.142673
v -0.001094 -2.914168 0.142673
v 0.567053 -2.858210 0.142673
v -2.913318 -0.001943 0.142673
v 1.616851 2.419482 0.142673
v 1.113366 -2.692488 0.142673
v 1.113366 2.688601 0.142673
v 2.689450 -1.116403 0.142673
v 2.420332 -1.619888 0.142673
v 2.058159 -2.061197 0.142673
v -2.857361 0.566203 0.142673
v 2.420332 1.616002 0.142673
v 1.616851 -2.423370 0.142673
v -2.691638 1.112517 0.142673
v 2.058159 2.057310 0.142673
v -2.422520 1.616001 0.142673
v -2.060348 2.057310 0.142673
v -1.619039 2.419482 0.142673
v -1.115554 -2.692488 0.142673
v -1.115554 2.688601 0.142673
v -0.569241 2.854323 0.142673
v 0.567053 2.854323 0.142673
v -0.001094 2.910280 0.142673
v -0.001095 0.725844 -0.141469
v 0.352940 0.680405 -0.141469
v 0.681255 0.352091 -0.141469
v 0.726694 -0.001944 -0.141469
v 0.681255 -0.355978 -0.141469
v 0.352941 -0.684292 -0.141469
v 0.291146 -0.558469 0.142673
v -0.001094 -0.729731 -0.141469
v -0.001094 -0.595977 0.142673
v -0.728882 -0.001943 -0.141469
v -0.683443 0.352091 -0.141469
v 0.555432 0.290296 0.142673
v 0.592939 -0.001944 0.142673
v 0.555432 -0.294183 0.142673
v -0.355129 -0.684292 -0.141469
v -0.293334 -0.558469 0.142673
v -0.557620 -0.294183 0.142673
v -0.595128 -0.001943 0.142673
v -0.557620 0.290296 0.142673
v -0.293334 0.554582 0.142673
v -0.001095 0.592090 0.142673
v -0.683443 -0.355978 -0.141469
v 0.291146 0.554582 0.142673
v -0.355129 0.680405 -0.141469
v 0.681255 0.352091 0.142673
v 0.726694 -0.001944 0.142673
v 0.681255 -0.355978 0.142673
v -0.355129 -0.684292 0.142673
v -0.001094 -0.729731 0.142673
v 0.352941 -0.684292 0.142673
v -0.683443 -0.355978 0.142673
v -0.728882 -0.001943 0.142673
v -0.683443 0.352091 0.142673
v -0.355129 0.680405 0.142673
v -0.001095 0.725844 0.142673
v 0.352940 0.680405 0.142673
v 0.070040 0.051908 -0.059170
v 0.076952 -0.001944 -0.059170
v 0.070040 -0.055796 -0.059170
v -0.054946 -0.073078 -0.059170
v -0.001094 -0.079990 -0.059170
v 0.052758 -0.073078 -0.059170
v -0.072229 -0.055796 -0.059170
v -0.079140 -0.001943 -0.059170
v -0.072229 0.051908 -0.059170
v -0.054946 0.069191 -0.059170
v -0.001094 0.076103 -0.059170
v 0.052758 0.069191 -0.059170
v 0.555432 0.290296 -0.059170
v 0.592939 -0.001944 -0.059170
v 0.555432 -0.294183 -0.059170
v -0.293334 -0.558469 -0.059170
v -0.001094 -0.595977 -0.059170
v 0.291146 -0.558469 -0.059170
v -0.557620 -0.294183 -0.059170
v -0.595128 -0.001943 -0.059170
v -0.557620 0.290296 -0.059170
v -0.293334 0.554582 -0.059170
v -0.001095 0.592090 -0.059170
v 0.291146 0.554582 -0.059170
v 0.070040 0.051908 0.110140
v 0.076952 -0.001944 0.110140
v 0.070040 -0.055796 0.110140
v -0.054946 -0.073078 0.110140
v -0.001094 -0.079990 0.110140
v 0.052758 -0.073078 0.110140
v -0.072229 -0.055796 0.110140
v -0.079140 -0.001944 0.110140
v -0.072229 0.051908 0.110140
v -0.054946 0.069191 0.110140
v -0.001094 0.076103 0.110140
v 0.052758 0.069191 0.110140
v -0.124605 0.611936 -0.059170
v -0.001095 0.623299 -0.059170
v 0.122416 0.611936 -0.059170
v -0.124605 0.611936 0.110140
v -0.001095 0.623299 0.110140
v 0.122416 0.611936 0.110140
v -0.562170 -0.296418 -0.059170
v -0.620540 -0.071429 -0.059170
v -0.440913 -0.459046 -0.059170
v -0.562170 -0.296418 0.110140
v -0.620540 -0.071429 0.110140
v -0.440913 -0.459046 0.110140
v 0.653877 -0.075989 -0.059170
v 0.592131 -0.312207 -0.059170
v 0.464052 -0.484371 -0.059170
v 0.653877 -0.075990 0.110140
v 0.592131 -0.312207 0.110140
v 0.464052 -0.484371 0.110140
vt 0.625000 0.827985
vt 0.584080 0.840173
vt 0.575670 0.824439
vt 0.415920 0.909827
vt 0.424330 0.925561
vt 0.375000 0.922015
vt 0.547015 0.500000
vt 0.452985 0.750000
vt 0.452985 0.500000
vt 0.797015 0.500000
vt 0.702985 0.750000
vt 0.702985 0.500000
vt 0.547015 0.000000
vt 0.452985 0.250000
vt 0.452985 0.000000
vt 0.202985 0.750000
vt 0.125000 0.500000
vt 0.202985 0.500000
vt 0.625000 0.250000
vt 0.625000 0.000000
vt 0.297015 0.500000
vt 0.297015 0.750000
vt 0.514612 0.203178
vt 0.510000 0.250000
vt 0.514612 0.203178
vt 0.968750 0.500000
vt 0.937500 0.546589
vt 0.968750 0.546589
vt 0.937500 0.500000
vt 0.906250 0.546589
vt 0.906250 0.500000
vt 0.875000 0.546589
vt 0.875000 0.500000
vt 0.843750 0.546589
vt 0.843750 0.500000
vt 0.812500 0.546589
vt 0.812500 0.500000
vt 0.781250 0.546589
vt 0.531250 0.500000
vt 0.531250 0.546589
vt 0.531250 0.546589
vt 0.985388 0.296822
vt 0.990000 0.250000
vt 0.990000 0.250000
vt 0.718750 0.500000
vt 0.687500 0.546589
vt 0.718750 0.546589
vt 0.687500 0.500000
vt 0.656250 0.546589
vt 0.656250 0.500000
vt 0.625000 0.546589
vt 0.625000 0.500000
vt 0.593750 0.546589
vt 0.593750 0.500000
vt 0.562500 0.546589
vt 0.562500 0.500000
vt 0.218750 0.546589
vt 0.218750 0.500000
vt 0.218750 0.500000
vt 0.985388 0.296822
vt 0.985388 0.296822
vt 0.468750 0.500000
vt 0.437500 0.546589
vt 0.468750 0.546589
vt 0.437500 0.500000
vt 0.406250 0.546589
vt 0.406250 0.500000
vt 0.375000 0.546589
vt 0.375000 0.500000
vt 0.343750 0.546589
vt 0.343750 0.500000
vt 0.312500 0.546589
vt 0.312500 0.500000
vt 0.281250 0.546589
vt 0.517755 0.785742
vt 0.500000 0.783993
vt 0.500000 0.783993
vt 0.482245 0.964258
vt 0.500000 0.966007
vt 0.500000 0.966007
vt 0.187500 0.546589
vt 0.187500 0.500000
vt 0.156250 0.546589
vt 0.156250 0.500000
vt 0.125000 0.546589
vt 0.125000 0.500000
vt 0.093750 0.546589
vt 0.093750 0.500000
vt 0.062500 0.546589
vt 0.093750 0.546589
vt 0.062500 0.500000
vt 0.031250 0.546589
vt 0.281250 0.500000
vt 0.281250 0.546589
vt 0.971731 0.341844
vt 0.658156 0.028269
vt 0.528269 0.158156
vt 1.000000 0.500000
vt 0.968750 0.546589
vt 1.000000 0.546589
vt 0.781250 0.500000
vt 0.750000 0.546589
vt 0.781250 0.546589
vt 0.750000 0.500000
vt 0.718750 0.546589
vt 0.531250 0.500000
vt 0.500000 0.546589
vt 0.500000 0.500000
vt 0.468750 0.546589
vt 0.281250 0.500000
vt 0.250000 0.546589
vt 0.250000 0.500000
vt 0.218750 0.546589
vt 0.031250 0.500000
vt 0.000000 0.546589
vt 0.031250 0.546589
vt 0.796822 0.485388
vt 0.750000 0.490000
vt 0.750000 0.490000
vt 0.514612 0.203178
vt 0.510000 0.250000
vt 0.482245 0.785742
vt 0.482245 0.785742
vt 0.031250 0.500000
vt 0.796822 0.485388
vt 0.750000 0.490000
vt 0.796822 0.485388
vt 0.589258 0.892754
vt 0.591007 0.875000
vt 0.591007 0.875000
vt 0.468750 0.500000
vt 0.589258 0.857245
vt 0.589258 0.857245
vt 0.968750 0.500000
vt 0.718750 0.500000
vt 0.410742 0.892755
vt 0.408993 0.875000
vt 0.410742 0.892755
vt 0.703178 0.485388
vt 0.750000 0.490000
vt 0.410742 0.857245
vt 0.408993 0.875000
vt 0.781250 0.500000
vt 0.517755 0.964258
vt 0.517755 0.964258
vt 0.703178 0.485388
vt 0.703178 0.485388
vt 0.000000 0.000000
vt 0.000000 0.000000
vt 0.000000 0.000000
vt 0.000000 0.000000
vt 0.000000 0.000000
vt 0.000000 0.000000
vt 0.000000 0.000000
vt 0.000000 0.000000
vt 0.000000 0.000000
vt 0.000000 0.000000
vt 0.000000 0.000000
vt 0.000000 0.000000
vt 0.000000 0.000000
vt 0.000000 0.000000
vt 0.000000 0.000000
vt 0.000000 0.000000
vt 0.000000 0.000000
vt 0.000000 0.000000
vt 0.000000 0.000000
vt 0.000000 0.000000
vt 0.000000 0.000000
vt 0.000000 0.000000
vt 0.000000 0.000000
vt 0.000000 0.000000
vt 0.000000 0.000000
vt 0.000000 0.000000
vt 0.000000 0.000000
vt 0.000000 0.000000
vt 0.000000 0.000000
vt 0.000000 0.000000
vt 0.000000 0.000000
vt 0.000000 0.000000
vt 0.000000 0.000000
vt 0.000000 0.000000
vt 0.000000 0.000000
vt 0.000000 0.000000
vt 0.000000 0.000000
vt 0.000000 0.000000
vt 0.000000 0.000000
vt 0.000000 0.000000
vt 0.000000 0.000000
vt 0.000000 0.000000
vt 0.000000 0.000000
vt 0.000000 0.000000
vt 0.000000 0.000000
vt 0.000000 0.000000
vt 0.000000 0.000000
vt 0.000000 0.000000
vt 0.000000 0.000000
vt 0.000000 0.000000
vt 0.000000 0.000000
vt 0.000000 0.000000
vt 0.000000 0.000000
vt 0.000000 0.000000
vt 0.000000 0.000000
vt 0.000000 0.000000
vt 0.000000 0.000000
vt 0.000000 0.000000
vt 0.000000 0.000000
vt 0.000000 0.000000
vt 0.000000 0.000000
vt 0.000000 0.000000
vt 0.000000 0.000000
vt 0.000000 0.000000
vt 0.000000 0.000000
vt 0.000000 0.000000
vt 0.000000 0.000000
vt 0.000000 0.000000
vt 0.000000 0.000000
vt 0.000000 0.000000
vt 0.000000 0.000000
vt 0.000000 0.000000
vt 0.000000 0.000000
vt 0.000000 0.000000
vt 0.000000 0.000000
vt 0.000000 0.000000
vt 0.000000 0.000000
vt 0.000000 0.000000
vt 0.000000 0.000000
vt 0.000000 0.000000
vt 0.000000 0.000000
vt 0.465173 0.790920
vt 0.547015 0.750000
vt 0.564352 0.810648
vt 0.534827 0.790920
vt 0.550561 0.799330
vt 0.625000 0.922015
vt 0.547015 1.000000
vt 0.564352 0.939352
vt 0.584080 0.909827
vt 0.575670 0.925561
vt 0.534827 0.959079
vt 0.550561 0.950670
vt 0.452985 1.000000
vt 0.435648 0.939352
vt 0.375000 0.827985
vt 0.435648 0.810648
vt 0.449439 0.799330
vt 0.424330 0.824439
vt 0.465173 0.959080
vt 0.415920 0.840173
vt 0.449439 0.950670
vt 0.797015 0.750000
vt 0.547015 0.250000
vt 0.125000 0.750000
vt 0.985388 0.296822
vt 0.517755 0.785742
vt 0.482245 0.964258
vt 0.550447 0.116663
vt 0.658156 0.028269
vt 0.580294 0.080294
vt 0.616663 0.050447
vt 0.841844 0.471731
vt 0.883337 0.449553
vt 0.919706 0.419706
vt 0.949553 0.383337
vt 0.971731 0.341844
vt 0.949553 0.383337
vt 0.919706 0.419706
vt 0.883337 0.449553
vt 0.841844 0.471731
vt 0.616663 0.050447
vt 0.580294 0.080294
vt 0.550447 0.116663
vt 0.528269 0.158156
vt 0.000000 0.500000
vt 0.796822 0.485388
vt 0.514612 0.203178
vt 0.589258 0.892754
vt 0.468750 0.546589
vt 0.968750 0.546589
vt 0.703178 0.485388
vt 0.410742 0.857245
vt 0.000000 0.000000
vt 0.000000 0.000000
vt 0.000000 0.000000
vt 0.000000 0.000000
vt 0.000000 0.000000
vt 0.000000 0.000000
vt 0.000000 0.000000
vt 0.000000 0.000000
vt 0.000000 0.000000
vn 0.0000 0.0000 1.0000
vn 1.0000 0.0000 0.0000
vn 0.0000 1.0000 0.0000
vn -1.0000 0.0000 0.0000
vn -0.7071 -0.7071 0.0000
vn -0.7071 0.7071 0.0000
vn 0.7071 -0.7071 0.0000
vn 0.7071 0.7071 0.0000
vn 0.0000 -1.0000 0.0000
vn 0.0000 0.0000 -1.0000
vn -0.2903 -0.9569 0.0000
vn -0.4714 -0.8819 0.0000
vn -0.6344 -0.7730 0.0000
vn -0.7730 -0.6344 0.0000
vn -0.8819 -0.4714 0.0000
vn -0.9569 -0.2903 0.0000
vn 0.9952 0.0980 0.0000
vn -0.9569 0.2903 0.0000
vn -0.8819 0.4714 0.0000
vn -0.7730 0.6344 0.0000
vn -0.6344 0.7730 0.0000
vn -0.4714 0.8819 0.0000
vn -0.2903 0.9569 0.0000
vn 0.0980 0.9952 0.0000
vn 0.2903 0.9569 0.0000
vn 0.4714 0.8819 0.0000
vn 0.6344 0.7730 0.0000
vn 0.7730 0.6344 0.0000
vn 0.8819 0.4714 0.0000
vn 0.9569 0.2903 0.0000
vn 0.9569 -0.2903 0.0000
vn 0.8819 -0.4714 0.0000
vn 0.7730 -0.6344 0.0000
vn 0.6344 -0.7730 0.0000
vn 0.4714 -0.8819 0.0000
vn 0.2903 -0.9569 0.0000
vn 0.0980 -0.9952 0.0000
vn -0.1273 -0.9919 0.0000
vn -0.9919 -0.1273 0.0000
vn -0.9919 0.1273 0.0000
vn -0.1273 0.9919 0.0000
vn 0.1273 0.9919 0.0000
vn 0.9919 0.1273 0.0000
vn 0.9919 -0.1273 0.0000
vn 0.1273 -0.9919 0.0000
vn -0.9952 -0.0980 0.0000
vn -0.9952 0.0980 0.0000
vn 0.9952 -0.0980 0.0000
vn -0.0980 -0.9952 0.0000
vn -0.0980 0.9952 0.0000
vn 0.0916 0.9958 0.0000
vn -0.0916 0.9958 0.0000
vn -0.9680 -0.2511 -0.0000
vn -0.8017 -0.5977 -0.0000
vn 0.8023 -0.5969 -0.0000
vn 0.9675 -0.2529 0.0000
usemtl None
s off
f 18/1/1 64/2/1 62/3/1
f 76/4/1 50/5/1 3/6/1
f 24/7/2 15/8/2 20/9/2
f 12/10/3 18/11/3 22/12/3
f 6/13/4 9/14/4 2/15/4
f 3/16/5 9/17/5 7/18/5
f 12/19/6 6/13/6 5/20/6
f 21/21/7 15/8/7 13/22/7
f 18/11/8 24/7/8 22/12/8
f 21/21/9 3/16/9 7/18/9
f 40/23/10 90/24/10 102/25/10
f 4/26/11 64/27/11 79/28/11
f 8/29/12 62/30/12 64/27/12
f 11/31/13 72/32/13 62/30/13
f 14/33/14 69/34/14 72/32/14
f 17/35/15 49/36/15 69/34/15
f 19/37/16 51/38/16 49/36/16
f 32/39/17 110/40/17 60/41/17
f 26/42/10 84/43/10 25/44/10
f 26/45/18 65/46/18 57/47/18
f 27/48/19 66/49/19 65/46/19
f 28/50/20 67/51/20 66/49/20
f 29/52/21 70/53/21 67/51/21
f 30/54/22 63/55/22 70/53/22
f 31/56/23 60/41/23 63/55/23
f 68/57/24 91/58/24 42/59/24
f 23/60/10 84/43/10 83/61/10
f 34/62/25 76/63/25 58/64/25
f 35/65/26 50/66/26 76/63/26
f 36/67/27 52/68/27 50/66/27
f 37/69/28 53/70/28 52/68/28
f 38/71/29 55/72/29 53/70/29
f 39/73/30 56/74/30 55/72/30
f 51/75/1 106/76/1 54/77/1
f 56/78/1 112/79/1 61/80/1
f 42/59/31 71/81/31 68/57/31
f 43/82/32 73/83/32 71/81/32
f 44/84/33 74/85/33 73/83/33
f 45/86/34 75/87/34 74/85/34
f 46/88/35 77/89/35 75/90/35
f 47/91/36 78/92/36 77/89/36
f 40/93/37 111/94/37 56/74/37
f 19/95/1 47/96/1 39/97/1
f 81/98/38 116/99/38 115/100/38
f 83/101/39 106/102/39 105/103/39
f 84/104/40 107/105/40 106/102/40
f 86/106/41 109/107/41 110/40/41
f 88/108/42 108/109/42 109/107/42
f 102/110/43 112/111/43 111/94/43
f 90/112/44 113/113/44 112/111/44
f 104/114/45 115/115/45 114/116/45
f 4/117/10 81/118/10 1/119/10
f 42/120/10 90/24/10 41/121/10
f 57/122/1 106/76/1 107/123/1
f 48/124/46 114/116/46 78/92/46
f 32/125/10 88/126/10 86/127/10
f 78/128/1 115/129/1 80/130/1
f 58/64/47 95/131/47 34/62/47
f 79/132/1 115/129/1 116/133/1
f 79/28/48 82/134/48 4/26/48
f 57/47/49 85/135/49 26/45/49
f 58/136/1 109/137/1 108/138/1
f 34/139/10 88/126/10 33/140/10
f 60/141/1 109/137/1 59/142/1
f 23/143/50 105/103/50 51/38/50
f 68/144/1 112/79/1 113/145/1
f 48/146/10 81/118/10 104/147/10
f 114/116/6 91/58/6 113/113/6
f 105/103/8 82/134/8 116/99/8
f 111/94/5 95/131/5 108/109/5
f 110/40/7 85/135/7 107/105/7
f 88/148/10 81/149/10 84/150/10
f 100/151/45 139/152/45 101/153/45
f 92/154/1 106/155/1 105/156/1
f 94/157/1 106/155/1 93/158/1
f 96/159/1 109/160/1 89/161/1
f 87/162/1 109/160/1 110/163/1
f 97/164/1 112/165/1 111/166/1
f 99/167/1 112/165/1 98/168/1
f 100/151/1 115/169/1 114/170/1
f 103/171/1 115/169/1 101/153/1
f 100/151/1 113/172/1 99/167/1
f 92/154/1 116/173/1 103/171/1
f 96/159/1 111/166/1 108/174/1
f 87/162/1 107/175/1 94/157/1
f 118/176/43 141/177/43 142/178/43
f 87/162/41 133/179/41 89/161/41
f 96/159/8 135/180/8 97/164/8
f 92/154/39 130/181/39 93/158/39
f 101/153/38 140/182/38 103/171/38
f 97/164/43 136/183/43 98/168/43
f 94/157/6 134/184/6 87/162/6
f 93/158/40 131/185/40 94/157/40
f 99/167/7 138/186/7 100/151/7
f 98/168/44 137/187/44 99/167/44
f 89/161/42 132/188/42 96/159/42
f 103/171/5 129/189/5 92/154/5
f 117/190/1 130/181/1 129/189/1
f 119/191/1 130/181/1 118/176/1
f 120/192/1 133/179/1 121/193/1
f 122/194/1 133/179/1 134/184/1
f 123/195/1 136/183/1 135/180/1
f 125/196/1 136/183/1 124/197/1
f 126/198/1 139/152/1 138/186/1
f 128/199/1 139/152/1 127/200/1
f 126/198/1 137/187/1 125/196/1
f 128/199/1 129/189/1 140/182/1
f 123/195/1 132/188/1 120/192/1
f 122/194/1 131/185/1 119/191/1
f 142/178/1 148/201/1 145/202/1
f 128/199/44 158/203/44 152/204/44
f 124/197/41 163/205/41 148/201/41
f 142/178/42 165/206/42 118/176/42
f 122/194/5 170/207/5 146/208/5
f 125/196/6 150/209/6 126/198/6
f 124/197/40 149/210/40 125/196/40
f 121/193/38 144/211/38 120/192/38
f 128/199/8 141/177/8 117/190/8
f 151/212/1 156/213/1 150/209/1
f 122/194/45 145/202/45 121/193/45
f 123/195/10 161/214/10 159/215/10
f 154/216/51 158/203/51 155/217/51
f 153/218/52 157/219/52 154/216/52
f 127/200/10 153/218/10 154/216/10
f 151/212/1 158/203/1 157/219/1
f 127/200/10 155/217/10 128/199/10
f 150/209/39 153/218/39 126/198/39
f 159/215/53 163/205/53 160/220/53
f 159/215/54 164/221/54 162/222/54
f 147/223/1 163/205/1 162/222/1
f 123/195/10 160/220/10 124/197/10
f 144/211/7 161/214/7 120/192/7
f 147/223/1 164/221/1 144/211/1
f 166/224/55 170/207/55 167/225/55
f 166/224/56 168/226/56 169/227/56
f 143/228/1 170/207/1 169/227/1
f 119/191/10 167/225/10 122/194/10
f 143/228/1 168/226/1 142/178/1
f 119/191/10 165/206/10 166/224/10
f 21/21/10 9/14/10 12/10/10
f 57/122/1 65/229/1 15/8/1
f 15/8/1 16/230/1 54/77/1
f 16/230/1 18/1/1 72/231/1
f 49/232/1 16/230/1 69/233/1
f 18/1/1 5/234/1 80/130/1
f 5/234/1 6/235/1 74/236/1
f 77/237/1 5/234/1 75/238/1
f 6/235/1 71/239/1 73/240/1
f 6/235/1 73/240/1 74/236/1
f 54/77/1 57/122/1 15/8/1
f 51/75/1 54/77/1 16/230/1
f 74/236/1 75/238/1 5/234/1
f 49/232/1 51/75/1 16/230/1
f 69/233/1 16/230/1 72/231/1
f 5/234/1 77/237/1 78/128/1
f 5/234/1 78/128/1 80/130/1
f 18/1/1 80/130/1 79/132/1
f 62/3/1 72/231/1 18/1/1
f 18/1/1 79/132/1 64/2/1
f 71/239/1 6/235/1 68/144/1
f 6/235/1 2/241/1 61/80/1
f 68/144/1 6/235/1 61/80/1
f 2/241/1 3/6/1 52/242/1
f 3/6/1 13/243/1 59/142/1
f 76/4/1 3/6/1 58/136/1
f 13/243/1 15/8/1 67/244/1
f 15/8/1 65/229/1 66/245/1
f 15/8/1 66/245/1 67/244/1
f 13/243/1 67/244/1 70/246/1
f 56/78/1 61/80/1 2/241/1
f 55/247/1 56/78/1 2/241/1
f 13/243/1 70/246/1 63/248/1
f 13/243/1 63/248/1 60/141/1
f 53/249/1 55/247/1 2/241/1
f 52/242/1 53/249/1 2/241/1
f 13/243/1 60/141/1 59/142/1
f 59/142/1 58/136/1 3/6/1
f 50/5/1 52/242/1 3/6/1
f 24/7/2 16/230/2 15/8/2
f 12/10/3 5/250/3 18/11/3
f 6/13/4 10/251/4 9/14/4
f 3/16/5 2/252/5 9/17/5
f 12/19/6 10/251/6 6/13/6
f 21/21/7 20/9/7 15/8/7
f 18/11/8 16/230/8 24/7/8
f 21/21/9 13/22/9 3/16/9
f 40/23/10 41/121/10 90/24/10
f 4/26/11 8/29/11 64/27/11
f 8/29/12 11/31/12 62/30/12
f 11/31/13 14/33/13 72/32/13
f 14/33/14 17/35/14 69/34/14
f 17/35/15 19/37/15 49/36/15
f 19/37/16 23/143/16 51/38/16
f 32/39/17 86/106/17 110/40/17
f 26/42/10 85/253/10 84/43/10
f 26/45/18 27/48/18 65/46/18
f 27/48/19 28/50/19 66/49/19
f 28/50/20 29/52/20 67/51/20
f 29/52/21 30/54/21 70/53/21
f 30/54/22 31/56/22 63/55/22
f 31/56/23 32/39/23 60/41/23
f 68/57/24 113/113/24 91/58/24
f 23/60/10 25/44/10 84/43/10
f 34/62/25 35/65/25 76/63/25
f 35/65/26 36/67/26 50/66/26
f 36/67/27 37/69/27 52/68/27
f 37/69/28 38/71/28 53/70/28
f 38/71/29 39/73/29 55/72/29
f 39/73/30 40/93/30 56/74/30
f 51/75/1 105/254/1 106/76/1
f 56/78/1 111/255/1 112/79/1
f 42/59/31 43/82/31 71/81/31
f 43/82/32 44/84/32 73/83/32
f 44/84/33 45/86/33 74/85/33
f 45/86/34 46/88/34 75/87/34
f 46/88/35 47/91/35 77/89/35
f 47/91/36 48/124/36 78/92/36
f 40/93/37 102/110/37 111/94/37
f 39/97/1 38/256/1 35/257/1
f 38/256/1 37/258/1 35/257/1
f 37/258/1 36/259/1 35/257/1
f 35/257/1 34/139/1 33/140/1
f 33/140/1 32/125/1 31/260/1
f 31/260/1 30/261/1 29/262/1
f 29/262/1 28/263/1 31/260/1
f 28/263/1 27/264/1 31/260/1
f 27/264/1 26/42/1 25/44/1
f 25/44/1 23/60/1 19/95/1
f 19/95/1 17/265/1 14/266/1
f 14/266/1 11/267/1 8/268/1
f 8/268/1 4/117/1 1/119/1
f 1/119/1 48/146/1 47/96/1
f 47/96/1 46/269/1 45/270/1
f 45/270/1 44/271/1 47/96/1
f 44/271/1 43/272/1 47/96/1
f 43/272/1 42/120/1 41/121/1
f 41/121/1 40/23/1 39/97/1
f 35/257/1 33/140/1 31/260/1
f 27/264/1 25/44/1 31/260/1
f 25/44/1 19/95/1 31/260/1
f 19/95/1 14/266/1 8/268/1
f 8/268/1 1/119/1 47/96/1
f 43/272/1 41/121/1 47/96/1
f 41/121/1 39/97/1 47/96/1
f 39/97/1 35/257/1 31/260/1
f 19/95/1 8/268/1 47/96/1
f 39/97/1 31/260/1 19/95/1
f 81/98/38 82/134/38 116/99/38
f 83/101/39 84/104/39 106/102/39
f 84/104/40 85/135/40 107/105/40
f 86/106/41 88/108/41 109/107/41
f 88/108/42 95/131/42 108/109/42
f 102/110/43 90/112/43 112/111/43
f 90/112/44 91/58/44 113/113/44
f 104/114/45 81/273/45 115/115/45
f 4/117/10 82/274/10 81/118/10
f 42/120/10 91/275/10 90/24/10
f 57/122/1 54/77/1 106/76/1
f 48/124/46 104/114/46 114/116/46
f 32/125/10 33/140/10 88/126/10
f 78/128/1 114/276/1 115/129/1
f 58/64/47 108/277/47 95/131/47
f 79/132/1 80/130/1 115/129/1
f 79/28/48 116/278/48 82/134/48
f 57/47/49 107/105/49 85/135/49
f 58/136/1 59/142/1 109/137/1
f 34/139/10 95/279/10 88/126/10
f 60/141/1 110/280/1 109/137/1
f 23/143/50 83/101/50 105/103/50
f 68/144/1 61/80/1 112/79/1
f 48/146/10 1/119/10 81/118/10
f 114/116/6 104/114/6 91/58/6
f 105/103/8 83/101/8 82/134/8
f 111/94/5 102/110/5 95/131/5
f 110/40/7 86/106/7 85/135/7
f 91/281/10 104/282/10 81/149/10
f 81/149/10 82/283/10 83/284/10
f 83/284/10 84/150/10 81/149/10
f 84/150/10 85/285/10 88/148/10
f 85/285/10 86/286/10 88/148/10
f 88/148/10 95/287/10 102/288/10
f 102/288/10 90/289/10 88/148/10
f 90/289/10 91/281/10 81/149/10
f 88/148/10 90/289/10 81/149/10
f 100/151/45 138/186/45 139/152/45
f 92/154/1 93/158/1 106/155/1
f 94/157/1 107/175/1 106/155/1
f 96/159/1 108/174/1 109/160/1
f 87/162/1 89/161/1 109/160/1
f 97/164/1 98/168/1 112/165/1
f 99/167/1 113/172/1 112/165/1
f 100/151/1 101/153/1 115/169/1
f 103/171/1 116/173/1 115/169/1
f 100/151/1 114/170/1 113/172/1
f 92/154/1 105/156/1 116/173/1
f 96/159/1 97/164/1 111/166/1
f 87/162/1 110/163/1 107/175/1
f 118/176/43 117/190/43 141/177/43
f 87/162/41 134/184/41 133/179/41
f 96/159/8 132/188/8 135/180/8
f 92/154/39 129/189/39 130/181/39
f 101/153/38 139/152/38 140/182/38
f 97/164/43 135/180/43 136/183/43
f 94/157/6 131/185/6 134/184/6
f 93/158/40 130/181/40 131/185/40
f 99/167/7 137/187/7 138/186/7
f 98/168/44 136/183/44 137/187/44
f 89/161/42 133/179/42 132/188/42
f 103/171/5 140/182/5 129/189/5
f 117/190/1 118/176/1 130/181/1
f 119/191/1 131/185/1 130/181/1
f 120/192/1 132/188/1 133/179/1
f 122/194/1 121/193/1 133/179/1
f 123/195/1 124/197/1 136/183/1
f 125/196/1 137/187/1 136/183/1
f 126/198/1 127/200/1 139/152/1
f 128/199/1 140/182/1 139/152/1
f 126/198/1 138/186/1 137/187/1
f 128/199/1 117/190/1 129/189/1
f 123/195/1 135/180/1 132/188/1
f 122/194/1 134/184/1 131/185/1
f 142/178/1 141/177/1 152/204/1
f 152/204/1 151/212/1 142/178/1
f 151/212/1 150/209/1 148/201/1
f 142/178/1 151/212/1 148/201/1
f 150/209/1 149/210/1 148/201/1
f 148/201/1 147/223/1 144/211/1
f 144/211/1 145/202/1 148/201/1
f 145/202/1 146/208/1 142/178/1
f 146/208/1 143/228/1 142/178/1
f 128/199/44 155/217/44 158/203/44
f 124/197/41 160/220/41 163/205/41
f 142/178/42 168/226/42 165/206/42
f 122/194/5 167/225/5 170/207/5
f 125/196/6 149/210/6 150/209/6
f 124/197/40 148/201/40 149/210/40
f 121/193/38 145/202/38 144/211/38
f 128/199/8 152/204/8 141/177/8
f 151/212/1 157/219/1 156/213/1
f 122/194/45 146/208/45 145/202/45
f 123/195/10 120/192/10 161/214/10
f 154/216/51 157/219/51 158/203/51
f 153/218/52 156/213/52 157/219/52
f 127/200/10 126/198/10 153/218/10
f 151/212/1 152/204/1 158/203/1
f 127/200/10 154/216/10 155/217/10
f 150/209/39 156/213/39 153/218/39
f 159/215/53 162/222/53 163/205/53
f 159/215/54 161/214/54 164/221/54
f 147/223/1 148/201/1 163/205/1
f 123/195/10 159/215/10 160/220/10
f 144/211/7 164/221/7 161/214/7
f 147/223/1 162/222/1 164/221/1
f 166/224/55 169/227/55 170/207/55
f 166/224/56 165/206/56 168/226/56
f 143/228/1 146/208/1 170/207/1
f 119/191/10 166/224/10 167/225/10
f 143/228/1 169/227/1 168/226/1
f 119/191/10 118/176/10 165/206/10
f 12/10/10 22/12/10 24/7/10
f 24/7/10 20/9/10 12/10/10
f 20/9/10 21/21/10 12/10/10
f 21/21/10 7/18/10 9/14/10
f 9/14/10 10/251/10 12/10/10
