# Blender v3.0.1 OBJ File: 'fan.blend'
# www.blender.org
mtllib fan_motor.mtl
o fan_motor_Sphere.003
v -0.000000 2.509517 -0.050112
v 0.009776 2.509517 -0.049149
v 0.019177 2.509517 -0.046297
v 0.027840 2.509517 -0.041666
v 0.035434 2.509517 -0.035434
v 0.041666 2.509517 -0.027840
v 0.046297 2.509517 -0.019177
v 0.049149 2.509517 -0.009776
v 0.050112 2.509517 -0.000000
v 0.049149 2.509517 0.009776
v 0.046297 2.509517 0.019177
v 0.041666 2.509517 0.027840
v 0.035434 2.509517 0.035434
v 0.027840 2.509517 0.041666
v 0.019177 2.509517 0.046297
v 0.009776 2.509517 0.049149
v -0.000000 2.509517 0.050112
v -0.009776 2.509517 0.049149
v -0.019177 2.509517 0.046297
v -0.027840 2.509517 0.041666
v -0.035434 2.509517 0.035434
v -0.041666 2.509517 0.027840
v -0.046297 2.509517 0.019177
v -0.049149 2.509517 0.009776
v -0.050112 2.509517 0.000000
v -0.049149 2.509517 -0.009776
v -0.046297 2.509517 -0.019177
v -0.041666 2.509517 -0.027840
v -0.035434 2.509517 -0.035434
v -0.027841 2.509517 -0.041666
v -0.019177 2.509517 -0.046297
v -0.009776 2.509517 -0.049149
v -0.000000 1.406697 -0.185581
v 0.000000 1.437017 -0.216048
v 0.036205 1.406697 -0.182015
v 0.042149 1.437017 -0.211897
v 0.071019 1.406697 -0.171454
v 0.082678 1.437017 -0.199602
v 0.103103 1.406697 -0.154305
v 0.120030 1.437017 -0.179637
v 0.131226 1.406697 -0.131226
v 0.152769 1.437017 -0.152769
v 0.154305 1.406697 -0.103103
v 0.179637 1.437017 -0.120030
v 0.171454 1.406697 -0.071019
v 0.199602 1.437017 -0.082678
v 0.182015 1.406697 -0.036205
v 0.211897 1.437017 -0.042149
v 0.185581 1.406697 0.000000
v 0.216048 1.437017 0.000000
v 0.182015 1.406697 0.036205
v 0.211897 1.437017 0.042149
v 0.171455 1.406697 0.071019
v 0.199602 1.437017 0.082678
v 0.154305 1.406697 0.103103
v 0.179637 1.437017 0.120030
v 0.131226 1.406697 0.131226
v 0.152769 1.437017 0.152769
v 0.103103 1.406697 0.154305
v 0.120030 1.437017 0.179637
v 0.071019 1.406697 0.171454
v 0.082678 1.437017 0.199602
v 0.036205 1.406697 0.182015
v 0.042149 1.437017 0.211897
v -0.000000 1.406697 0.185581
v -0.000000 1.437017 0.216048
v -0.036205 1.406697 0.182015
v -0.042149 1.437017 0.211897
v -0.071019 1.406697 0.171454
v -0.082678 1.437017 0.199602
v -0.103103 1.406697 0.154305
v -0.120030 1.437017 0.179637
v -0.131226 1.406697 0.131226
v -0.152769 1.437017 0.152769
v -0.154305 1.406697 0.103103
v -0.179637 1.437017 0.120030
v -0.171454 1.406697 0.071019
v -0.199602 1.437017 0.082678
v -0.182015 1.406697 0.036205
v -0.211897 1.437017 0.042149
v -0.185581 1.406697 -0.000000
v -0.216048 1.437017 -0.000000
v -0.182015 1.406697 -0.036205
v -0.211897 1.437017 -0.042149
v -0.171454 1.406697 -0.071019
v -0.199602 1.437017 -0.082678
v -0.154305 1.406697 -0.103103
v -0.179637 1.437017 -0.120030
v -0.131226 1.406697 -0.131226
v -0.152769 1.437017 -0.152769
v -0.103103 1.406697 -0.154305
v -0.120030 1.437017 -0.179637
v -0.071019 1.406697 -0.171455
v -0.082678 1.437017 -0.199602
v -0.036205 1.406697 -0.182015
v -0.042149 1.437017 -0.211897
v 0.042149 2.179655 -0.211897
v 0.000000 2.179655 -0.216048
v 0.082678 2.179655 -0.199602
v 0.120030 2.179655 -0.179637
v 0.152769 2.179655 -0.152769
v 0.179637 2.179655 -0.120030
v 0.199602 2.179655 -0.082678
v 0.211897 2.179655 -0.042149
v 0.216048 2.179655 0.000000
v 0.211897 2.179655 0.042149
v 0.199602 2.179655 0.082678
v 0.179637 2.179655 0.120030
v 0.152769 2.179655 0.152769
v 0.120030 2.179655 0.179637
v 0.082678 2.179655 0.199602
v 0.042149 2.179655 0.211897
v -0.000000 2.179655 0.216048
v -0.042149 2.179655 0.211897
v -0.082678 2.179655 0.199602
v -0.120030 2.179655 0.179637
v -0.152769 2.179655 0.152769
v -0.179637 2.179655 0.120030
v -0.199602 2.179655 0.082678
v -0.211897 2.179655 0.042149
v -0.216048 2.179655 -0.000000
v -0.211897 2.179655 -0.042149
v -0.199602 2.179655 -0.082678
v -0.179637 2.179655 -0.120030
v -0.152769 2.179655 -0.152769
v -0.120030 2.179655 -0.179637
v -0.082678 2.179655 -0.199602
v -0.042149 2.179655 -0.211897
v 0.027891 2.509517 -0.140218
v -0.000000 2.509517 -0.142965
v 0.054710 2.509517 -0.132083
v 0.079427 2.509517 -0.118871
v 0.101092 2.509517 -0.101092
v 0.118871 2.509517 -0.079427
v 0.132083 2.509517 -0.054710
v 0.140218 2.509517 -0.027891
v 0.142965 2.509517 0.000000
v 0.140218 2.509517 0.027891
v 0.132083 2.509517 0.054710
v 0.118871 2.509517 0.079427
v 0.101092 2.509517 0.101092
v 0.079427 2.509517 0.118871
v 0.054710 2.509517 0.132083
v 0.027891 2.509517 0.140218
v -0.000000 2.509517 0.142965
v -0.027891 2.509517 0.140218
v -0.054710 2.509517 0.132083
v -0.079427 2.509517 0.118871
v -0.101092 2.509517 0.101092
v -0.118871 2.509517 0.079427
v -0.132083 2.509517 0.054710
v -0.140218 2.509517 0.027891
v -0.142965 2.509517 -0.000000
v -0.140218 2.509517 -0.027891
v -0.132083 2.509517 -0.054711
v -0.118871 2.509517 -0.079427
v -0.101092 2.509517 -0.101092
v -0.079427 2.509517 -0.118871
v -0.054710 2.509517 -0.132083
v -0.027891 2.509517 -0.140218
vt 0.084561 0.730850
vt 0.089431 0.841825
vt 0.084561 0.841873
vt 0.098147 0.730572
vt 0.101659 0.841421
vt 0.098147 0.841595
vt 0.137309 0.730399
vt 0.140820 0.841595
vt 0.137309 0.841421
vt 0.140820 0.730572
vt 0.144949 0.841731
vt 0.144949 0.730709
vt 0.149537 0.841825
vt 0.149537 0.730802
vt 0.154407 0.841873
vt 0.154407 0.730850
vt 0.159373 0.841873
vt 0.159373 0.730850
vt 0.164243 0.841825
vt 0.164243 0.730802
vt 0.168830 0.841731
vt 0.168830 0.730709
vt 0.172959 0.841595
vt 0.101659 0.730399
vt 0.105170 0.841595
vt 0.101659 0.841421
vt 0.105170 0.730572
vt 0.109299 0.841731
vt 0.109299 0.730709
vt 0.113886 0.841825
vt 0.113886 0.730802
vt 0.118757 0.841873
vt 0.118757 0.730850
vt 0.123722 0.841873
vt 0.123722 0.730850
vt 0.128592 0.841825
vt 0.128592 0.730802
vt 0.133180 0.841731
vt 0.133180 0.730709
vt 0.137309 0.841595
vt 0.623342 0.540620
vt 0.619214 0.429490
vt 0.623342 0.429518
vt 0.619214 0.540592
vt 0.614626 0.429470
vt 0.614626 0.540572
vt 0.609756 0.429460
vt 0.609756 0.540561
vt 0.604790 0.429460
vt 0.604790 0.540561
vt 0.599920 0.429470
vt 0.599920 0.540572
vt 0.595332 0.429490
vt 0.595332 0.540592
vt 0.591203 0.429518
vt 0.591203 0.540620
vt 0.587692 0.429555
vt 0.066008 0.730572
vt 0.070137 0.841731
vt 0.066008 0.841595
vt 0.070137 0.730709
vt 0.074725 0.841825
vt 0.074725 0.730802
vt 0.079595 0.841873
vt 0.079595 0.730850
vt 0.094018 0.730709
vt 0.094018 0.841731
vt 0.089431 0.730802
vt 0.102081 0.880508
vt 0.099290 0.887791
vt 0.099290 0.880859
vt 0.102081 0.888579
vt 0.098637 0.894540
vt 0.099828 0.903774
vt 0.101320 0.896435
vt 0.095495 0.906463
vt 0.097355 0.900844
vt 0.094906 0.915806
vt 0.097662 0.910315
vt 0.091664 0.920037
vt 0.093127 0.911179
vt 0.088062 0.922843
vt 0.090342 0.914813
vt 0.084238 0.924119
vt 0.087248 0.917224
vt 0.080615 0.918058
vt 0.083963 0.918320
vt 0.080340 0.923814
vt 0.077330 0.916448
vt 0.072914 0.918570
vt 0.076516 0.921940
vt 0.069672 0.913833
vt 0.074236 0.913553
vt 0.069083 0.904397
vt 0.071451 0.909484
vt 0.064750 0.901031
vt 0.066915 0.907911
vt 0.065941 0.891983
vt 0.067223 0.898488
vt 0.062497 0.885483
vt 0.063258 0.893458
vt 0.062497 0.877413
vt 0.065288 0.885132
vt 0.063258 0.869557
vt 0.065288 0.878200
vt 0.064750 0.862217
vt 0.065941 0.871452
vt 0.066915 0.855676
vt 0.067223 0.865147
vt 0.069672 0.850185
vt 0.069083 0.859529
vt 0.074236 0.851178
vt 0.071451 0.854812
vt 0.076516 0.843148
vt 0.072914 0.845955
vt 0.080340 0.841873
vt 0.077330 0.848767
vt 0.083963 0.847934
vt 0.080615 0.847672
vt 0.084238 0.842178
vt 0.087248 0.849543
vt 0.091664 0.847421
vt 0.088062 0.844051
vt 0.094906 0.852158
vt 0.090342 0.852438
vt 0.095495 0.861594
vt 0.093127 0.856507
vt 0.097662 0.858081
vt 0.097355 0.867504
vt 0.101320 0.872533
vt 0.099828 0.864961
vt 0.098637 0.874009
vt 0.089979 0.681022
vt 0.086944 0.681084
vt 0.092711 0.680932
vt 0.095035 0.680817
vt 0.146256 0.680931
vt 0.143932 0.680817
vt 0.148988 0.681022
vt 0.152024 0.681084
vt 0.155247 0.681115
vt 0.158533 0.681115
vt 0.161755 0.681084
vt 0.164791 0.681022
vt 0.167523 0.680931
vt 0.110606 0.680931
vt 0.108282 0.680817
vt 0.113338 0.681022
vt 0.116374 0.681084
vt 0.119596 0.681115
vt 0.122882 0.681115
vt 0.126105 0.681084
vt 0.129141 0.681022
vt 0.131873 0.680931
vt 0.615174 0.590019
vt 0.617906 0.590039
vt 0.612139 0.590006
vt 0.608916 0.590000
vt 0.605630 0.590000
vt 0.602407 0.590006
vt 0.599371 0.590019
vt 0.596639 0.590039
vt 0.071444 0.680932
vt 0.062497 0.730399
vt 0.069121 0.680817
vt 0.074176 0.681022
vt 0.080435 0.681115
vt 0.077212 0.681084
vt 0.083721 0.681115
vt 0.175044 0.570616
vt 0.183727 0.571397
vt 0.175220 0.572466
vt 0.174698 0.568860
vt 0.183223 0.566120
vt 0.174196 0.567264
vt 0.182236 0.561108
vt 0.173556 0.565890
vt 0.180803 0.556556
vt 0.172804 0.564791
vt 0.178979 0.552637
vt 0.171969 0.564010
vt 0.176834 0.549502
vt 0.171082 0.563575
vt 0.174450 0.547272
vt 0.170178 0.563504
vt 0.171920 0.546032
vt 0.169291 0.563800
vt 0.169340 0.545830
vt 0.168455 0.564451
vt 0.166810 0.546674
vt 0.167703 0.565432
vt 0.164426 0.548532
vt 0.160457 0.554965
vt 0.162281 0.551331
vt 0.166562 0.568223
vt 0.167064 0.566706
vt 0.158036 0.564150
vt 0.159023 0.559293
vt 0.166216 0.569926
vt 0.157533 0.569348
vt 0.166039 0.571748
vt 0.157533 0.574689
vt 0.166216 0.575469
vt 0.166039 0.573620
vt 0.166562 0.577226
vt 0.158036 0.579966
vt 0.160457 0.589530
vt 0.159023 0.584977
vt 0.167703 0.580195
vt 0.167064 0.578822
vt 0.168455 0.581294
vt 0.162281 0.593449
vt 0.169291 0.582076
vt 0.164426 0.596583
vt 0.170178 0.582510
vt 0.166810 0.598814
vt 0.171920 0.600255
vt 0.169340 0.600053
vt 0.171969 0.582285
vt 0.171082 0.582581
vt 0.172804 0.581634
vt 0.174450 0.599411
vt 0.173556 0.580653
vt 0.176834 0.597554
vt 0.174196 0.579379
vt 0.178979 0.594755
vt 0.182236 0.586793
vt 0.180803 0.591121
vt 0.175044 0.576160
vt 0.174698 0.577862
vt 0.175220 0.574338
vt 0.183223 0.581936
vt 0.183727 0.576737
vt 0.101659 0.730399
vt 0.172959 0.730572
vt 0.137309 0.730572
vt 0.587692 0.540657
vn -0.0980 0.0000 -0.9952
vn 0.4714 0.0000 -0.8819
vn 0.6344 0.0000 -0.7730
vn 0.7730 0.0000 -0.6344
vn 0.8819 0.0000 -0.4714
vn 0.9569 0.0000 -0.2903
vn 0.9952 0.0000 -0.0980
vn 0.9952 0.0000 0.0980
vn 0.9569 0.0000 0.2903
vn 0.8819 0.0000 0.4714
vn 0.7730 0.0000 0.6344
vn 0.6344 0.0000 0.7730
vn 0.4714 0.0000 0.8819
vn 0.2903 0.0000 0.9569
vn 0.0980 0.0000 0.9952
vn -0.0980 0.0000 0.9952
vn -0.2903 0.0000 0.9569
vn -0.4714 0.0000 0.8819
vn -0.6344 0.0000 0.7730
vn -0.7730 0.0000 0.6344
vn -0.8819 0.0000 0.4714
vn -0.9569 0.0000 0.2903
vn -0.9952 0.0000 0.0980
vn -0.9952 0.0000 -0.0980
vn -0.9569 0.0000 -0.2903
vn -0.8819 0.0000 -0.4714
vn -0.7730 0.0000 -0.6344
vn -0.6344 0.0000 -0.7730
vn -0.4714 0.0000 -0.8819
vn -0.2903 0.0000 -0.9569
vn 0.2903 0.0000 -0.9569
vn 0.0980 0.0000 -0.9952
vn 0.0693 -0.7071 -0.7037
vn 0.2053 -0.7071 -0.6767
vn 0.3333 -0.7071 -0.6236
vn 0.4486 -0.7071 -0.5466
vn 0.5466 -0.7071 -0.4486
vn 0.6236 -0.7071 -0.3333
vn 0.6767 -0.7071 -0.2053
vn 0.7037 -0.7071 -0.0693
vn 0.7037 -0.7071 0.0693
vn 0.6767 -0.7071 0.2053
vn 0.6236 -0.7071 0.3333
vn 0.5466 -0.7071 0.4486
vn 0.4486 -0.7071 0.5466
vn 0.3333 -0.7071 0.6236
vn 0.2053 -0.7071 0.6767
vn 0.0693 -0.7071 0.7037
vn -0.0693 -0.7071 0.7037
vn -0.2053 -0.7071 0.6767
vn -0.3333 -0.7071 0.6236
vn -0.4486 -0.7071 0.5466
vn -0.5466 -0.7071 0.4486
vn -0.6236 -0.7071 0.3333
vn -0.6767 -0.7071 0.2053
vn -0.7037 -0.7071 0.0693
vn -0.7037 -0.7071 -0.0693
vn -0.6767 -0.7071 -0.2053
vn -0.6236 -0.7071 -0.3333
vn -0.5466 -0.7071 -0.4486
vn -0.4486 -0.7071 -0.5466
vn -0.3333 -0.7071 -0.6236
vn -0.2053 -0.7071 -0.6767
vn -0.0693 -0.7071 -0.7037
vn 0.0000 -1.0000 0.0000
vn 0.0957 0.2153 -0.9718
vn 0.2835 0.2153 -0.9345
vn 0.4603 0.2153 -0.8612
vn 0.6195 0.2153 -0.7549
vn 0.7549 0.2153 -0.6195
vn 0.8612 0.2153 -0.4603
vn 0.9345 0.2153 -0.2835
vn 0.9718 0.2153 -0.0957
vn 0.9718 0.2153 0.0957
vn 0.9345 0.2153 0.2835
vn 0.8612 0.2153 0.4603
vn 0.7549 0.2153 0.6195
vn 0.6195 0.2153 0.7549
vn 0.4603 0.2153 0.8612
vn 0.2835 0.2153 0.9345
vn 0.0957 0.2153 0.9718
vn -0.0957 0.2153 0.9718
vn -0.2835 0.2153 0.9345
vn -0.4603 0.2153 0.8612
vn -0.6195 0.2153 0.7549
vn -0.7549 0.2153 0.6195
vn -0.8612 0.2153 0.4603
vn -0.9345 0.2153 0.2835
vn -0.9718 0.2153 0.0957
vn -0.9718 0.2153 -0.0957
vn -0.9345 0.2153 -0.2835
vn -0.8612 0.2153 -0.4603
vn -0.7549 0.2153 -0.6195
vn -0.6195 0.2153 -0.7549
vn -0.4603 0.2153 -0.8612
vn -0.2835 0.2153 -0.9345
vn -0.0957 0.2153 -0.9718
vn 0.0000 1.0000 -0.0000
vn 0.0000 -1.0000 -0.0001
vn 0.0000 -1.0000 0.0001
usemtl Material
s off
f 128/1/1 34/2/1 96/3/1
f 99/4/2 40/5/2 38/6/2
f 100/7/3 42/8/3 40/9/3
f 101/10/4 44/11/4 42/8/4
f 102/12/5 46/13/5 44/11/5
f 103/14/6 48/15/6 46/13/6
f 104/16/7 50/17/7 48/15/7
f 105/18/8 52/19/8 50/17/8
f 106/20/9 54/21/9 52/19/9
f 107/22/10 56/23/10 54/21/10
f 108/24/11 58/25/11 56/26/11
f 109/27/12 60/28/12 58/25/12
f 110/29/13 62/30/13 60/28/13
f 111/31/14 64/32/14 62/30/14
f 112/33/15 66/34/15 64/32/15
f 113/35/16 68/36/16 66/34/16
f 114/37/17 70/38/17 68/36/17
f 115/39/18 72/40/18 70/38/18
f 116/41/19 74/42/19 72/43/19
f 117/44/20 76/45/20 74/42/20
f 118/46/21 78/47/21 76/45/21
f 119/48/22 80/49/22 78/47/22
f 120/50/23 82/51/23 80/49/23
f 121/52/24 84/53/24 82/51/24
f 122/54/25 86/55/25 84/53/25
f 123/56/26 88/57/26 86/55/26
f 124/58/27 90/59/27 88/60/27
f 125/61/28 92/62/28 90/59/28
f 126/63/29 94/64/29 92/62/29
f 127/65/30 96/3/30 94/64/30
f 97/66/31 38/6/31 36/67/31
f 98/68/32 36/67/32 34/2/32
f 34/69/33 35/70/33 33/71/33
f 36/72/34 37/73/34 35/70/34
f 40/74/35 37/73/35 38/75/35
f 40/74/36 41/76/36 39/77/36
f 44/78/37 41/76/37 42/79/37
f 46/80/38 43/81/38 44/78/38
f 48/82/39 45/83/39 46/80/39
f 50/84/40 47/85/40 48/82/40
f 50/84/41 51/86/41 49/87/41
f 52/88/42 53/89/42 51/86/42
f 56/90/43 53/89/43 54/91/43
f 58/92/44 55/93/44 56/90/44
f 58/92/45 59/94/45 57/95/45
f 62/96/46 59/94/46 60/97/46
f 62/96/47 63/98/47 61/99/47
f 66/100/48 63/98/48 64/101/48
f 68/102/49 65/103/49 66/100/49
f 70/104/50 67/105/50 68/102/50
f 72/106/51 69/107/51 70/104/51
f 74/108/52 71/109/52 72/106/52
f 76/110/53 73/111/53 74/108/53
f 76/110/54 77/112/54 75/113/54
f 80/114/55 77/112/55 78/115/55
f 82/116/56 79/117/56 80/114/56
f 82/116/57 83/118/57 81/119/57
f 84/120/58 85/121/58 83/118/58
f 88/122/59 85/121/59 86/123/59
f 90/124/60 87/125/60 88/122/60
f 90/124/61 91/126/61 89/127/61
f 92/128/62 93/129/62 91/126/62
f 96/130/63 93/129/63 94/131/63
f 96/130/64 33/71/64 95/132/64
f 47/85/65 63/98/65 79/117/65
f 129/133/66 98/68/66 130/134/66
f 131/135/67 97/66/67 129/133/67
f 132/136/68 99/4/68 131/135/68
f 133/137/69 100/7/69 132/138/69
f 134/139/70 101/10/70 133/137/70
f 135/140/71 102/12/71 134/139/71
f 136/141/72 103/14/72 135/140/72
f 137/142/73 104/16/73 136/141/73
f 138/143/74 105/18/74 137/142/74
f 139/144/75 106/20/75 138/143/75
f 140/145/76 107/22/76 139/144/76
f 141/146/77 108/24/77 140/147/77
f 142/148/78 109/27/78 141/146/78
f 143/149/79 110/29/79 142/148/79
f 144/150/80 111/31/80 143/149/80
f 145/151/81 112/33/81 144/150/81
f 146/152/82 113/35/82 145/151/82
f 147/153/83 114/37/83 146/152/83
f 148/154/84 115/39/84 147/153/84
f 149/155/85 116/41/85 148/156/85
f 150/157/86 117/44/86 149/155/86
f 151/158/87 118/46/87 150/157/87
f 152/159/88 119/48/88 151/158/88
f 153/160/89 120/50/89 152/159/89
f 154/161/90 121/52/90 153/160/90
f 155/162/91 122/54/91 154/161/91
f 156/163/92 123/164/92 155/165/92
f 157/166/93 124/58/93 156/163/93
f 157/166/94 126/63/94 125/61/94
f 159/167/95 126/63/95 158/168/95
f 160/169/96 127/65/96 159/167/96
f 160/169/97 98/68/97 128/1/97
f 2/170/98 130/171/98 1/172/98
f 3/173/98 129/174/98 2/170/98
f 4/175/98 131/176/98 3/173/98
f 5/177/98 132/178/98 4/175/98
f 6/179/98 133/180/98 5/177/98
f 7/181/98 134/182/98 6/179/98
f 8/183/98 135/184/98 7/181/98
f 9/185/98 136/186/98 8/183/98
f 10/187/98 137/188/98 9/185/98
f 11/189/98 138/190/98 10/187/98
f 12/191/98 139/192/98 11/189/98
f 12/191/98 141/193/98 140/194/98
f 14/195/98 141/193/98 13/196/98
f 14/195/98 143/197/98 142/198/98
f 15/199/98 144/200/98 143/197/98
f 16/201/98 145/202/98 144/200/98
f 18/203/98 145/202/98 17/204/98
f 19/205/98 146/206/98 18/203/98
f 19/205/98 148/207/98 147/208/98
f 21/209/98 148/207/98 20/210/98
f 22/211/98 149/212/98 21/209/98
f 23/213/98 150/214/98 22/211/98
f 24/215/98 151/216/98 23/213/98
f 24/215/98 153/217/98 152/218/98
f 26/219/98 153/217/98 25/220/98
f 27/221/98 154/222/98 26/219/98
f 28/223/98 155/224/98 27/221/98
f 29/225/98 156/226/98 28/223/98
f 29/225/98 158/227/98 157/228/98
f 31/229/98 158/227/98 30/230/98
f 32/231/98 159/232/98 31/229/98
f 1/172/98 160/233/98 32/231/98
f 128/1/1 98/68/1 34/2/1
f 99/4/2 100/234/2 40/5/2
f 100/7/3 101/10/3 42/8/3
f 101/10/4 102/12/4 44/11/4
f 102/12/5 103/14/5 46/13/5
f 103/14/6 104/16/6 48/15/6
f 104/16/7 105/18/7 50/17/7
f 105/18/8 106/20/8 52/19/8
f 106/20/9 107/22/9 54/21/9
f 107/22/10 108/235/10 56/23/10
f 108/24/11 109/27/11 58/25/11
f 109/27/12 110/29/12 60/28/12
f 110/29/13 111/31/13 62/30/13
f 111/31/14 112/33/14 64/32/14
f 112/33/15 113/35/15 66/34/15
f 113/35/16 114/37/16 68/36/16
f 114/37/17 115/39/17 70/38/17
f 115/39/18 116/236/18 72/40/18
f 116/41/19 117/44/19 74/42/19
f 117/44/20 118/46/20 76/45/20
f 118/46/21 119/48/21 78/47/21
f 119/48/22 120/50/22 80/49/22
f 120/50/23 121/52/23 82/51/23
f 121/52/24 122/54/24 84/53/24
f 122/54/25 123/56/25 86/55/25
f 123/56/26 124/237/26 88/57/26
f 124/58/27 125/61/27 90/59/27
f 125/61/28 126/63/28 92/62/28
f 126/63/29 127/65/29 94/64/29
f 127/65/30 128/1/30 96/3/30
f 97/66/31 99/4/31 38/6/31
f 98/68/32 97/66/32 36/67/32
f 34/69/33 36/72/33 35/70/33
f 36/72/34 38/75/34 37/73/34
f 40/74/35 39/77/35 37/73/35
f 40/74/36 42/79/36 41/76/36
f 44/78/37 43/81/37 41/76/37
f 46/80/38 45/83/38 43/81/38
f 48/82/39 47/85/39 45/83/39
f 50/84/40 49/87/40 47/85/40
f 50/84/41 52/88/41 51/86/41
f 52/88/42 54/91/42 53/89/42
f 56/90/43 55/93/43 53/89/43
f 58/92/44 57/95/44 55/93/44
f 58/92/45 60/97/45 59/94/45
f 62/96/46 61/99/46 59/94/46
f 62/96/47 64/101/47 63/98/47
f 66/100/48 65/103/48 63/98/48
f 68/102/49 67/105/49 65/103/49
f 70/104/50 69/107/50 67/105/50
f 72/106/51 71/109/51 69/107/51
f 74/108/52 73/111/52 71/109/52
f 76/110/53 75/113/53 73/111/53
f 76/110/54 78/115/54 77/112/54
f 80/114/55 79/117/55 77/112/55
f 82/116/56 81/119/56 79/117/56
f 82/116/57 84/120/57 83/118/57
f 84/120/58 86/123/58 85/121/58
f 88/122/59 87/125/59 85/121/59
f 90/124/60 89/127/60 87/125/60
f 90/124/61 92/128/61 91/126/61
f 92/128/62 94/131/62 93/129/62
f 96/130/63 95/132/63 93/129/63
f 96/130/64 34/69/64 33/71/64
f 95/132/65 33/71/65 35/70/65
f 35/70/99 37/73/99 39/77/99
f 39/77/65 41/76/65 43/81/65
f 43/81/65 45/83/65 39/77/65
f 45/83/65 47/85/65 39/77/65
f 47/85/65 49/87/65 51/86/65
f 51/86/65 53/89/65 55/93/65
f 55/93/65 57/95/65 63/98/65
f 57/95/65 59/94/65 63/98/65
f 59/94/65 61/99/65 63/98/65
f 63/98/65 65/103/65 71/109/65
f 65/103/65 67/105/65 71/109/65
f 67/105/100 69/107/100 71/109/100
f 71/109/65 73/111/65 75/113/65
f 75/113/65 77/112/65 79/117/65
f 79/117/65 81/119/65 83/118/65
f 83/118/65 85/121/65 87/125/65
f 87/125/65 89/127/65 95/132/65
f 89/127/65 91/126/65 95/132/65
f 91/126/65 93/129/65 95/132/65
f 95/132/65 35/70/65 47/85/65
f 35/70/65 39/77/65 47/85/65
f 47/85/65 51/86/65 63/98/65
f 51/86/65 55/93/65 63/98/65
f 71/109/65 75/113/65 79/117/65
f 79/117/65 83/118/65 95/132/65
f 83/118/65 87/125/65 95/132/65
f 63/98/65 71/109/65 79/117/65
f 95/132/65 47/85/65 79/117/65
f 129/133/66 97/66/66 98/68/66
f 131/135/67 99/4/67 97/66/67
f 132/136/68 100/234/68 99/4/68
f 133/137/69 101/10/69 100/7/69
f 134/139/70 102/12/70 101/10/70
f 135/140/71 103/14/71 102/12/71
f 136/141/72 104/16/72 103/14/72
f 137/142/73 105/18/73 104/16/73
f 138/143/74 106/20/74 105/18/74
f 139/144/75 107/22/75 106/20/75
f 140/145/76 108/235/76 107/22/76
f 141/146/77 109/27/77 108/24/77
f 142/148/78 110/29/78 109/27/78
f 143/149/79 111/31/79 110/29/79
f 144/150/80 112/33/80 111/31/80
f 145/151/81 113/35/81 112/33/81
f 146/152/82 114/37/82 113/35/82
f 147/153/83 115/39/83 114/37/83
f 148/154/84 116/236/84 115/39/84
f 149/155/85 117/44/85 116/41/85
f 150/157/86 118/46/86 117/44/86
f 151/158/87 119/48/87 118/46/87
f 152/159/88 120/50/88 119/48/88
f 153/160/89 121/52/89 120/50/89
f 154/161/90 122/54/90 121/52/90
f 155/162/91 123/56/91 122/54/91
f 156/163/92 124/58/92 123/164/92
f 157/166/93 125/61/93 124/58/93
f 157/166/94 158/168/94 126/63/94
f 159/167/95 127/65/95 126/63/95
f 160/169/96 128/1/96 127/65/96
f 160/169/97 130/134/97 98/68/97
f 2/170/98 129/174/98 130/171/98
f 3/173/98 131/176/98 129/174/98
f 4/175/98 132/178/98 131/176/98
f 5/177/98 133/180/98 132/178/98
f 6/179/98 134/182/98 133/180/98
f 7/181/98 135/184/98 134/182/98
f 8/183/98 136/186/98 135/184/98
f 9/185/98 137/188/98 136/186/98
f 10/187/98 138/190/98 137/188/98
f 11/189/98 139/192/98 138/190/98
f 12/191/98 140/194/98 139/192/98
f 12/191/98 13/196/98 141/193/98
f 14/195/98 142/198/98 141/193/98
f 14/195/98 15/199/98 143/197/98
f 15/199/98 16/201/98 144/200/98
f 16/201/98 17/204/98 145/202/98
f 18/203/98 146/206/98 145/202/98
f 19/205/98 147/208/98 146/206/98
f 19/205/98 20/210/98 148/207/98
f 21/209/98 149/212/98 148/207/98
f 22/211/98 150/214/98 149/212/98
f 23/213/98 151/216/98 150/214/98
f 24/215/98 152/218/98 151/216/98
f 24/215/98 25/220/98 153/217/98
f 26/219/98 154/222/98 153/217/98
f 27/221/98 155/224/98 154/222/98
f 28/223/98 156/226/98 155/224/98
f 29/225/98 157/228/98 156/226/98
f 29/225/98 30/230/98 158/227/98
f 31/229/98 159/232/98 158/227/98
f 32/231/98 160/233/98 159/232/98
f 1/172/98 130/171/98 160/233/98
