# Blender v3.0.1 OBJ File: 'fan.blend'
# www.blender.org
mtllib fan_blades.mtl
o Cube_Cube.001
v -0.146546 1.073544 0.146546
v -0.146546 1.201771 0.146546
v -0.146546 1.073544 -0.146546
v -0.146546 1.201771 -0.146546
v 0.146546 1.073544 0.146546
v 0.146546 1.201771 0.146546
v 0.146546 1.073544 -0.146546
v 0.146546 1.201771 -0.146546
v 0.016867 1.073544 0.084798
v 0.016867 1.201771 0.084798
v -0.000000 1.073544 0.086459
v -0.000000 1.201771 0.086459
v -0.048034 1.073544 -0.071888
v -0.016867 1.073544 -0.084798
v -0.033086 1.073544 -0.079878
v 0.016867 1.073544 -0.084798
v 0.048034 1.073544 -0.071888
v 0.033086 1.073544 -0.079878
v 0.061136 1.073544 0.061136
v 0.000000 1.073544 -0.086459
v 0.071888 1.073544 0.048034
v 0.071888 1.073544 -0.048034
v 0.086459 1.073544 0.000000
v 0.084798 1.073544 0.016867
v 0.084798 1.073544 -0.016867
v 0.079878 1.073544 0.033086
v -0.016867 1.073544 0.084798
v -0.016867 1.201771 0.084798
v 0.079878 1.073544 -0.033086
v 0.061136 1.073544 -0.061136
v -0.033086 1.073544 0.079878
v -0.033086 1.201771 0.079878
v -0.048034 1.073544 0.071888
v -0.048034 1.201771 0.071888
v -0.086459 1.073544 -0.000000
v -0.084798 1.073544 0.016867
v -0.084798 1.073544 -0.016867
v -0.071888 1.073544 0.048034
v -0.071888 1.073544 -0.048034
v -0.079878 1.073544 0.033086
v -0.079878 1.073544 -0.033086
v -0.061136 1.073544 -0.061136
v 0.048034 1.073544 0.071888
v 0.033086 1.073544 0.079878
v -0.061136 1.073544 0.061136
v -0.061136 1.201771 0.061136
v -0.071888 1.201771 0.048034
v -0.079878 1.201771 0.033086
v -0.086459 1.201771 -0.000000
v -0.084798 1.201771 -0.016867
v -0.084798 1.201771 0.016867
v -0.071888 1.201771 -0.048034
v -0.079878 1.201771 -0.033086
v -0.061136 1.201771 -0.061136
v -0.048034 1.201771 -0.071888
v -0.016867 1.201771 -0.084798
v -0.033086 1.201771 -0.079878
v 0.016867 1.201771 -0.084798
v 0.061136 1.201771 -0.061136
v 0.048034 1.201771 -0.071888
v 0.033086 1.201771 -0.079878
v 0.000000 1.201771 -0.086459
v 0.048034 1.201771 0.071888
v 0.033086 1.201771 0.079878
v 0.071888 1.201771 0.048034
v 0.071888 1.201771 -0.048034
v 0.086459 1.201771 0.000000
v 0.079878 1.201771 0.033086
v 0.084798 1.201771 0.016867
v 0.084798 1.201771 -0.016867
v 0.061136 1.201771 0.061136
v 0.079878 1.201771 -0.033086
v -0.433641 1.073544 0.146546
v -0.433641 1.201771 0.146546
v -0.433641 1.201771 -0.146546
v -0.433641 1.073544 -0.146546
v -0.146546 1.073544 -0.433641
v -0.146546 1.201771 -0.433641
v 0.146546 1.201771 -0.433641
v 0.146546 1.073544 -0.433641
v 0.433641 1.073544 -0.146546
v 0.433641 1.201771 -0.146546
v 0.433641 1.201771 0.146546
v 0.433641 1.073544 0.146546
v 0.146546 1.073544 0.433641
v 0.146546 1.201771 0.433641
v -0.146546 1.201771 0.433641
v -0.146546 1.073544 0.433641
v -0.618653 1.073544 0.146546
v -0.618653 1.201771 0.146546
v -0.618653 1.201771 -0.146546
v -0.618653 1.073544 -0.146546
v -0.146546 1.073544 -0.618653
v -0.146546 1.201771 -0.618653
v 0.146546 1.201771 -0.618653
v 0.146546 1.073544 -0.618653
v 0.618653 1.073544 -0.146546
v 0.618653 1.201771 -0.146546
v 0.618653 1.201771 0.146546
v 0.618653 1.073544 0.146546
v 0.146546 1.073544 0.618653
v 0.146546 1.201771 0.618653
v -0.146546 1.201771 0.618653
v -0.146546 1.073544 0.618653
v -0.618653 1.201771 0.212041
v -0.618653 1.073544 0.212041
v -0.618653 1.073544 -0.212041
v -0.618653 1.201771 -0.212041
v -0.212041 1.201771 -0.618653
v -0.212041 1.073544 -0.618653
v 0.212041 1.073544 -0.618653
v 0.212041 1.201771 -0.618653
v 0.618653 1.201771 -0.212041
v 0.618653 1.073544 -0.212041
v 0.618653 1.073544 0.212041
v 0.618653 1.201771 0.212041
v 0.212041 1.201771 0.618653
v 0.212041 1.073544 0.618653
v -0.212041 1.073544 0.618653
v -0.212041 1.201771 0.618653
v -6.128284 1.073544 0.146546
v -6.128284 1.073544 0.212041
v -6.128284 1.201771 0.212041
v -6.128284 1.201771 0.146546
v -6.128284 1.201771 -0.146546
v -6.128284 1.201771 -0.212041
v -6.128284 1.073544 -0.212041
v -6.128284 1.073544 -0.146546
v -0.146546 1.073544 -6.128284
v -0.212041 1.073544 -6.128284
v -0.212041 1.201771 -6.128284
v -0.146546 1.201771 -6.128284
v 0.146546 1.201771 -6.128284
v 0.212041 1.201771 -6.128284
v 0.212041 1.073544 -6.128284
v 0.146546 1.073544 -6.128284
v 6.128284 1.073544 -0.146546
v 6.128284 1.073544 -0.212041
v 6.128284 1.201771 -0.212041
v 6.128284 1.201771 -0.146546
v 6.128284 1.201771 0.146546
v 6.128284 1.201771 0.212041
v 6.128284 1.073544 0.212041
v 6.128284 1.073544 0.146546
v 0.146546 1.073544 6.128284
v 0.212041 1.073544 6.128284
v 0.212041 1.201771 6.128284
v 0.146546 1.201771 6.128284
v -0.146546 1.201771 6.128284
v -0.212041 1.201771 6.128284
v -0.212041 1.073544 6.128284
v -0.146546 1.073544 6.128284
v -0.618348 1.201771 0.212041
v -0.433641 1.201771 0.146546
v -0.433641 1.073544 0.146546
v -0.618348 1.073544 0.212041
v -0.618348 1.073544 -0.212041
v -0.433641 1.073544 -0.146546
v -0.433641 1.201771 -0.146546
v -0.618348 1.201771 -0.212041
v -0.212041 1.201771 -0.618348
v -0.146546 1.201771 -0.433641
v -0.146546 1.073544 -0.433641
v -0.212041 1.073544 -0.618348
v 0.212041 1.073544 -0.618348
v 0.146546 1.073544 -0.433641
v 0.146546 1.201771 -0.433641
v 0.212041 1.201771 -0.618348
v 0.618348 1.201771 -0.212041
v 0.433641 1.201771 -0.146546
v 0.433641 1.073544 -0.146546
v 0.618348 1.073544 -0.212041
v 0.618348 1.073544 0.212041
v 0.433641 1.073544 0.146546
v 0.433641 1.201771 0.146546
v 0.618348 1.201771 0.212041
v 0.212041 1.201771 0.618348
v 0.146546 1.201771 0.433641
v 0.146546 1.073544 0.433641
v 0.212041 1.073544 0.618348
v -0.212041 1.073544 0.618348
v -0.146546 1.073544 0.433641
v -0.146546 1.201771 0.433641
v -0.212041 1.201771 0.618348
vt 0.125000 0.750000
vt 0.235613 0.697330
vt 0.250000 0.698747
vt 0.125000 0.500000
vt 0.250000 0.551253
vt 0.235613 0.552670
vt 0.875000 0.750000
vt 0.802147 0.677147
vt 0.811318 0.665972
vt 0.625000 0.500000
vt 0.697853 0.572853
vt 0.688682 0.584028
vt 1.000000 0.622544
vt 0.968750 0.780398
vt 1.000000 0.780398
vt 0.968750 0.622544
vt 0.937500 0.780398
vt 0.937500 0.622544
vt 0.906250 0.780398
vt 0.906250 0.622544
vt 0.875000 0.780398
vt 0.906250 0.780398
vt 0.843750 0.622544
vt 0.875000 0.622544
vt 0.812500 0.622544
vt 0.843750 0.780398
vt 0.781250 0.622544
vt 0.812500 0.780398
vt 0.750000 0.622544
vt 0.781250 0.780398
vt 0.718750 0.622544
vt 0.750000 0.780398
vt 0.687500 0.622544
vt 0.718750 0.780398
vt 0.656250 0.622544
vt 0.687500 0.780398
vt 0.625000 0.622544
vt 0.656250 0.780398
vt 0.593750 0.622544
vt 0.625000 0.780398
vt 0.562500 0.622544
vt 0.593750 0.780398
vt 0.531250 0.622544
vt 0.562500 0.780398
vt 0.500000 0.622544
vt 0.531250 0.780398
vt 0.468750 0.780398
vt 0.500000 0.780398
vt 0.468750 0.622544
vt 0.437500 0.780398
vt 0.437500 0.622544
vt 0.406250 0.780398
vt 0.406250 0.622544
vt 0.375000 0.780398
vt 0.375000 0.622544
vt 0.343750 0.780398
vt 0.343750 0.622544
vt 0.312500 0.780398
vt 0.312500 0.622544
vt 0.281250 0.780398
vt 0.281250 0.622544
vt 0.250000 0.780398
vt 0.250000 0.622544
vt 0.218750 0.780398
vt 0.218750 0.622544
vt 0.187500 0.780398
vt 0.187500 0.622544
vt 0.156250 0.780398
vt 0.156250 0.622544
vt 0.125000 0.780398
vt 0.125000 0.622544
vt 0.093750 0.780398
vt 0.093750 0.622544
vt 0.062500 0.780398
vt 0.062500 0.622544
vt 0.031250 0.780398
vt 0.031250 0.622544
vt 0.000000 0.780398
vt 0.625000 0.000000
vt 0.375000 0.000000
vt 0.625000 0.000000
vt 0.625000 0.250000
vt 0.625000 0.250000
vt 0.375000 0.250000
vt 0.375000 0.250000
vt 0.375000 0.000000
vt 0.625000 0.250000
vt 0.625000 0.500000
vt 0.375000 0.500000
vt 0.375000 0.500000
vt 0.375000 0.250000
vt 0.625000 0.500000
vt 0.625000 0.750000
vt 0.625000 0.750000
vt 0.375000 0.750000
vt 0.375000 0.750000
vt 0.375000 0.500000
vt 0.625000 0.750000
vt 0.625000 1.000000
vt 0.625000 1.000000
vt 0.375000 1.000000
vt 0.375000 1.000000
vt 0.375000 0.750000
vt 0.625000 0.250000
vt 0.375000 0.000000
vt 0.625000 0.500000
vt 0.375000 0.250000
vt 0.625000 0.750000
vt 0.375000 0.500000
vt 0.625000 1.000000
vt 0.375000 0.750000
vt 0.375000 0.000000
vt 0.625000 0.000000
vt 0.375000 0.000000
vt 0.625000 0.000000
vt 0.375000 0.250000
vt 0.375000 0.250000
vt 0.375000 0.250000
vt 0.375000 0.000000
vt 0.625000 0.250000
vt 0.375000 0.250000
vt 0.625000 0.250000
vt 0.625000 0.250000
vt 0.625000 0.250000
vt 0.625000 0.250000
vt 0.625000 0.250000
vt 0.375000 0.250000
vt 0.625000 0.250000
vt 0.375000 0.250000
vt 0.375000 0.500000
vt 0.375000 0.500000
vt 0.375000 0.500000
vt 0.375000 0.250000
vt 0.625000 0.500000
vt 0.375000 0.500000
vt 0.625000 0.500000
vt 0.625000 0.500000
vt 0.625000 0.500000
vt 0.625000 0.500000
vt 0.625000 0.500000
vt 0.375000 0.500000
vt 0.625000 0.500000
vt 0.375000 0.500000
vt 0.375000 0.750000
vt 0.375000 0.750000
vt 0.375000 0.750000
vt 0.375000 0.500000
vt 0.625000 0.750000
vt 0.375000 0.750000
vt 0.625000 0.750000
vt 0.625000 0.750000
vt 0.625000 0.750000
vt 0.625000 0.750000
vt 0.625000 0.750000
vt 0.375000 0.750000
vt 0.625000 0.750000
vt 0.375000 0.750000
vt 0.375000 1.000000
vt 0.375000 1.000000
vt 0.375000 1.000000
vt 0.375000 0.750000
vt 0.625000 1.000000
vt 0.375000 1.000000
vt 0.625000 1.000000
vt 0.625000 1.000000
vt 0.625000 0.250000
vt 0.375000 0.250000
vt 0.375000 0.250000
vt 0.375000 0.000000
vt 0.625000 0.000000
vt 0.625000 0.000000
vt 0.625000 0.000000
vt 0.625000 0.250000
vt 0.375000 0.000000
vt 0.625000 0.500000
vt 0.375000 0.500000
vt 0.375000 0.500000
vt 0.375000 0.250000
vt 0.625000 0.250000
vt 0.625000 0.250000
vt 0.625000 0.500000
vt 0.375000 0.250000
vt 0.625000 0.750000
vt 0.375000 0.750000
vt 0.375000 0.750000
vt 0.375000 0.500000
vt 0.625000 0.500000
vt 0.625000 0.500000
vt 0.625000 0.750000
vt 0.375000 0.500000
vt 0.625000 1.000000
vt 0.375000 1.000000
vt 0.375000 1.000000
vt 0.375000 0.750000
vt 0.625000 0.750000
vt 0.625000 0.750000
vt 0.625000 1.000000
vt 0.375000 0.750000
vt 0.625000 0.000000
vt 0.311318 0.584028
vt 0.302147 0.572853
vt 0.197853 0.572853
vt 0.188682 0.584028
vt 0.181867 0.596778
vt 0.318133 0.596778
vt 0.322330 0.610613
vt 0.176253 0.625000
vt 0.177670 0.610613
vt 0.323747 0.625000
vt 0.177670 0.639387
vt 0.322330 0.639387
vt 0.318133 0.653222
vt 0.181867 0.653222
vt 0.188682 0.665972
vt 0.311318 0.665972
vt 0.302147 0.677147
vt 0.197853 0.677147
vt 0.209028 0.686318
vt 0.290972 0.686318
vt 0.278222 0.693133
vt 0.221778 0.693133
vt 0.264387 0.697330
vt 0.290972 0.563682
vt 0.278222 0.556867
vt 0.209028 0.563682
vt 0.221778 0.556867
vt 0.264387 0.552670
vt 0.811318 0.584028
vt 0.802147 0.572853
vt 0.875000 0.500000
vt 0.697853 0.677147
vt 0.709028 0.686318
vt 0.721778 0.693133
vt 0.818133 0.596778
vt 0.822330 0.610613
vt 0.750000 0.698747
vt 0.735613 0.697330
vt 0.823747 0.625000
vt 0.764387 0.697330
vt 0.822330 0.639387
vt 0.818133 0.653222
vt 0.778222 0.693133
vt 0.790972 0.686318
vt 0.688681 0.665972
vt 0.790972 0.563682
vt 0.778222 0.556867
vt 0.681867 0.653222
vt 0.677670 0.639387
vt 0.750000 0.551253
vt 0.764387 0.552670
vt 0.676253 0.625000
vt 0.735613 0.552670
vt 0.677670 0.610613
vt 0.681867 0.596778
vt 0.721778 0.556867
vt 0.709028 0.563682
vt 0.000000 0.622544
vn 0.0000 -1.0000 0.0000
vn 0.0000 1.0000 0.0000
vn -0.0980 0.0000 0.9952
vn -0.2903 0.0000 0.9569
vn -0.4714 0.0000 0.8819
vn -0.6344 0.0000 0.7730
vn -0.7730 0.0000 0.6344
vn -0.8819 0.0000 0.4714
vn -0.9569 0.0000 0.2903
vn -0.9952 0.0000 0.0980
vn -0.9952 0.0000 -0.0980
vn -0.9569 0.0000 -0.2903
vn -0.8819 0.0000 -0.4714
vn -0.7730 0.0000 -0.6344
vn -0.6344 0.0000 -0.7730
vn -0.4714 0.0000 -0.8819
vn -0.2903 0.0000 -0.9569
vn -0.0980 0.0000 -0.9952
vn 0.0980 0.0000 -0.9952
vn 0.2903 0.0000 -0.9569
vn 0.4714 0.0000 -0.8819
vn 0.6344 0.0000 -0.7730
vn 0.7730 0.0000 -0.6344
vn 0.8819 0.0000 -0.4714
vn 0.9569 0.0000 -0.2903
vn 0.9952 0.0000 -0.0980
vn 0.9952 0.0000 0.0980
vn 0.9569 0.0000 0.2903
vn 0.8819 0.0000 0.4714
vn 0.7730 0.0000 0.6344
vn 0.6344 0.0000 0.7730
vn 0.4714 0.0000 0.8819
vn 0.2903 0.0000 0.9569
vn 0.0980 0.0000 0.9952
vn 0.0000 0.0000 1.0000
vn 0.0000 0.0000 -1.0000
vn -1.0000 0.0000 0.0000
vn 1.0000 0.0000 0.0000
vn 0.3342 0.0000 0.9425
vn 0.3342 0.0000 -0.9425
vn -0.9425 0.0000 0.3342
vn 0.9425 0.0000 0.3342
vn -0.3342 0.0000 -0.9425
vn -0.3342 0.0000 0.9425
vn 0.9425 0.0000 -0.3342
vn -0.9425 0.0000 -0.3342
usemtl None
s off
f 1/1/1 27/2/1 11/3/1
f 3/4/1 20/5/1 14/6/1
f 2/7/2 46/8/2 47/9/2
f 8/10/2 59/11/2 66/12/2
f 20/13/3 58/14/3 62/15/3
f 16/16/4 61/17/4 58/14/4
f 18/18/5 60/19/5 61/17/5
f 17/20/6 59/21/6 60/22/6
f 22/23/7 59/21/7 30/24/7
f 29/25/8 66/26/8 22/23/8
f 25/27/9 72/28/9 29/25/9
f 23/29/10 70/30/10 25/27/10
f 24/31/11 67/32/11 23/29/11
f 26/33/12 69/34/12 24/31/12
f 21/35/13 68/36/13 26/33/13
f 19/37/14 65/38/14 21/35/14
f 43/39/15 71/40/15 19/37/15
f 44/41/16 63/42/16 43/39/16
f 9/43/17 64/44/17 44/41/17
f 11/45/18 10/46/18 9/43/18
f 11/45/19 28/47/19 12/48/19
f 27/49/20 32/50/20 28/47/20
f 31/51/21 34/52/21 32/50/21
f 33/53/22 46/54/22 34/52/22
f 45/55/23 47/56/23 46/54/23
f 38/57/24 48/58/24 47/56/24
f 40/59/25 51/60/25 48/58/25
f 36/61/26 49/62/26 51/60/26
f 35/63/27 50/64/27 49/62/27
f 37/65/28 53/66/28 50/64/28
f 41/67/29 52/68/29 53/66/29
f 39/69/30 54/70/30 52/68/30
f 42/71/31 55/72/31 54/70/31
f 13/73/32 57/74/32 55/72/32
f 15/75/33 56/76/33 57/74/33
f 14/77/34 62/78/34 56/76/34
f 74/79/35 1/80/35 2/81/35
f 75/82/2 2/81/2 4/83/2
f 76/84/36 4/83/36 3/85/36
f 73/86/1 3/85/1 1/80/1
f 78/87/37 3/85/37 4/83/37
f 79/88/2 4/83/2 8/10/2
f 80/89/38 8/10/38 7/90/38
f 77/91/1 7/90/1 3/85/1
f 82/92/36 7/90/36 8/10/36
f 83/93/2 8/10/2 6/94/2
f 84/95/35 6/94/35 5/96/35
f 81/97/1 5/96/1 7/90/1
f 86/98/38 5/96/38 6/94/38
f 87/99/2 6/94/2 2/100/2
f 88/101/37 2/100/37 1/102/37
f 85/103/1 1/102/1 5/96/1
f 91/104/2 74/79/2 75/82/2
f 89/105/1 76/84/1 73/86/1
f 95/106/2 78/87/2 79/88/2
f 93/107/1 80/89/1 77/91/1
f 99/108/2 82/92/2 83/93/2
f 97/109/1 84/95/1 81/97/1
f 103/110/2 86/98/2 87/99/2
f 101/111/1 88/101/1 85/103/1
f 74/79/35 155/112/35 73/86/35
f 105/113/35 156/114/35 153/115/35
f 92/116/1 157/117/1 158/118/1
f 156/114/1 106/119/1 89/105/1
f 76/84/35 159/120/35 75/82/35
f 107/121/36 160/122/36 157/117/36
f 94/123/2 161/124/2 162/125/2
f 160/122/2 108/126/2 91/104/2
f 78/87/35 163/127/35 77/91/35
f 109/128/37 164/129/37 161/124/37
f 96/130/1 165/131/1 166/132/1
f 164/129/1 110/133/1 93/107/1
f 80/89/35 167/134/35 79/88/35
f 111/135/38 168/136/38 165/131/38
f 98/137/2 169/138/2 170/139/2
f 168/136/2 112/140/2 95/106/2
f 82/92/35 171/141/35 81/97/35
f 113/142/36 172/143/36 169/138/36
f 100/144/1 173/145/1 174/146/1
f 172/143/1 114/147/1 97/109/1
f 84/95/35 175/148/35 83/93/35
f 115/149/35 176/150/35 173/145/35
f 102/151/2 177/152/2 178/153/2
f 176/150/2 116/154/2 99/108/2
f 86/98/35 179/155/35 85/103/35
f 117/156/38 180/157/38 177/152/38
f 104/158/1 181/159/1 182/160/1
f 180/157/1 118/161/1 101/111/1
f 88/101/35 183/162/35 87/99/35
f 119/163/37 184/164/37 181/159/37
f 184/164/2 120/165/2 103/110/2
f 125/166/37 127/167/37 128/168/37
f 122/169/1 89/105/1 106/119/1
f 123/170/35 106/119/35 105/113/35
f 124/171/2 105/113/2 90/172/2
f 125/166/2 90/172/2 91/104/2
f 126/173/2 91/104/2 108/126/2
f 127/167/36 108/126/36 107/121/36
f 128/168/1 107/121/1 92/116/1
f 121/174/1 92/116/1 89/105/1
f 133/175/36 135/176/36 136/177/36
f 130/178/1 93/107/1 110/133/1
f 131/179/37 110/133/37 109/128/37
f 132/180/2 109/128/2 94/123/2
f 133/175/2 94/123/2 95/106/2
f 134/181/2 95/106/2 112/140/2
f 135/176/38 112/140/38 111/135/38
f 136/177/1 111/135/1 96/130/1
f 129/182/1 96/130/1 93/107/1
f 141/183/38 143/184/38 144/185/38
f 138/186/1 97/109/1 114/147/1
f 139/187/36 114/147/36 113/142/36
f 140/188/2 113/142/2 98/137/2
f 141/183/2 98/137/2 99/108/2
f 142/189/2 99/108/2 116/154/2
f 143/184/35 116/154/35 115/149/35
f 144/185/1 115/149/1 100/144/1
f 137/190/1 100/144/1 97/109/1
f 149/191/35 151/192/35 152/193/35
f 146/194/1 101/111/1 118/161/1
f 147/195/38 118/161/38 117/156/38
f 148/196/2 117/156/2 102/151/2
f 149/191/2 102/151/2 103/110/2
f 150/197/2 103/110/2 120/165/2
f 151/192/37 120/165/37 119/163/37
f 152/193/1 119/163/1 104/158/1
f 145/198/1 104/158/1 101/111/1
f 156/114/39 154/199/39 153/115/39
f 160/122/40 158/118/40 157/117/40
f 164/129/41 162/125/41 161/124/41
f 168/136/42 166/132/42 165/131/42
f 172/143/43 170/139/43 169/138/43
f 176/150/44 174/146/44 173/145/44
f 180/157/45 178/153/45 177/152/45
f 184/164/46 182/160/46 181/159/46
f 90/172/2 153/115/2 154/199/2
f 22/200/1 30/201/1 7/90/1
f 3/4/1 42/202/1 39/203/1
f 3/4/1 39/203/1 41/204/1
f 29/205/1 22/200/1 7/90/1
f 25/206/1 29/205/1 7/90/1
f 1/1/1 3/4/1 35/207/1
f 3/4/1 41/204/1 37/208/1
f 3/4/1 37/208/1 35/207/1
f 25/206/1 7/90/1 23/209/1
f 7/90/1 5/96/1 23/209/1
f 1/1/1 35/207/1 36/210/1
f 24/211/1 23/209/1 5/96/1
f 26/212/1 24/211/1 5/96/1
f 1/1/1 36/210/1 40/213/1
f 1/1/1 40/213/1 38/214/1
f 21/215/1 26/212/1 5/96/1
f 19/216/1 21/215/1 5/96/1
f 1/1/1 38/214/1 45/217/1
f 1/1/1 45/217/1 33/218/1
f 43/219/1 19/216/1 5/96/1
f 44/220/1 43/219/1 5/96/1
f 1/1/1 33/218/1 31/221/1
f 1/1/1 31/221/1 27/2/1
f 44/220/1 5/96/1 9/222/1
f 5/96/1 1/1/1 11/3/1
f 9/222/1 5/96/1 11/3/1
f 7/90/1 30/201/1 17/223/1
f 7/90/1 17/223/1 18/224/1
f 13/225/1 42/202/1 3/4/1
f 15/226/1 13/225/1 3/4/1
f 3/4/1 7/90/1 20/5/1
f 7/90/1 18/224/1 16/227/1
f 7/90/1 16/227/1 20/5/1
f 14/6/1 15/226/1 3/4/1
f 52/228/2 54/229/2 4/230/2
f 6/94/2 71/231/2 63/232/2
f 6/94/2 63/232/2 64/233/2
f 53/234/2 52/228/2 4/230/2
f 50/235/2 53/234/2 4/230/2
f 2/7/2 6/94/2 12/236/2
f 6/94/2 64/233/2 10/237/2
f 6/94/2 10/237/2 12/236/2
f 50/235/2 4/230/2 49/238/2
f 4/230/2 2/7/2 49/238/2
f 2/7/2 12/236/2 28/239/2
f 51/240/2 49/238/2 2/7/2
f 48/241/2 51/240/2 2/7/2
f 2/7/2 28/239/2 32/242/2
f 2/7/2 32/242/2 34/243/2
f 47/9/2 48/241/2 2/7/2
f 2/7/2 34/243/2 46/8/2
f 65/244/2 71/231/2 6/94/2
f 4/230/2 54/229/2 55/245/2
f 4/230/2 55/245/2 57/246/2
f 68/247/2 65/244/2 6/94/2
f 69/248/2 68/247/2 6/94/2
f 8/10/2 4/230/2 62/249/2
f 4/230/2 57/246/2 56/250/2
f 4/230/2 56/250/2 62/249/2
f 69/248/2 6/94/2 67/251/2
f 6/94/2 8/10/2 67/251/2
f 8/10/2 62/249/2 58/252/2
f 70/253/2 67/251/2 8/10/2
f 72/254/2 70/253/2 8/10/2
f 8/10/2 58/252/2 61/255/2
f 8/10/2 61/255/2 60/256/2
f 66/12/2 72/254/2 8/10/2
f 8/10/2 60/256/2 59/11/2
f 20/13/3 16/16/3 58/14/3
f 16/16/4 18/18/4 61/17/4
f 18/18/5 17/20/5 60/19/5
f 17/20/6 30/24/6 59/21/6
f 22/23/7 66/26/7 59/21/7
f 29/25/8 72/28/8 66/26/8
f 25/27/9 70/30/9 72/28/9
f 23/29/10 67/32/10 70/30/10
f 24/31/11 69/34/11 67/32/11
f 26/33/12 68/36/12 69/34/12
f 21/35/13 65/38/13 68/36/13
f 19/37/14 71/40/14 65/38/14
f 43/39/15 63/42/15 71/40/15
f 44/41/16 64/44/16 63/42/16
f 9/43/17 10/46/17 64/44/17
f 11/45/18 12/48/18 10/46/18
f 11/45/19 27/49/19 28/47/19
f 27/49/20 31/51/20 32/50/20
f 31/51/21 33/53/21 34/52/21
f 33/53/22 45/55/22 46/54/22
f 45/55/23 38/57/23 47/56/23
f 38/57/24 40/59/24 48/58/24
f 40/59/25 36/61/25 51/60/25
f 36/61/26 35/63/26 49/62/26
f 35/63/27 37/65/27 50/64/27
f 37/65/28 41/67/28 53/66/28
f 41/67/29 39/69/29 52/68/29
f 39/69/30 42/71/30 54/70/30
f 42/71/31 13/73/31 55/72/31
f 13/73/32 15/75/32 57/74/32
f 15/75/33 14/77/33 56/76/33
f 14/77/34 20/257/34 62/78/34
f 74/79/35 73/86/35 1/80/35
f 75/82/2 74/79/2 2/81/2
f 76/84/36 75/82/36 4/83/36
f 73/86/1 76/84/1 3/85/1
f 78/87/37 77/91/37 3/85/37
f 79/88/2 78/87/2 4/83/2
f 80/89/38 79/88/38 8/10/38
f 77/91/1 80/89/1 7/90/1
f 82/92/36 81/97/36 7/90/36
f 83/93/2 82/92/2 8/10/2
f 84/95/35 83/93/35 6/94/35
f 81/97/1 84/95/1 5/96/1
f 86/98/38 85/103/38 5/96/38
f 87/99/2 86/98/2 6/94/2
f 88/101/37 87/99/37 2/100/37
f 85/103/1 88/101/1 1/102/1
f 91/104/2 90/172/2 74/79/2
f 89/105/1 92/116/1 76/84/1
f 95/106/2 94/123/2 78/87/2
f 93/107/1 96/130/1 80/89/1
f 99/108/2 98/137/2 82/92/2
f 97/109/1 100/144/1 84/95/1
f 103/110/2 102/151/2 86/98/2
f 101/111/1 104/158/1 88/101/1
f 74/79/35 154/199/35 155/112/35
f 105/113/35 106/119/35 156/114/35
f 92/116/1 107/121/1 157/117/1
f 158/118/35 76/84/35 92/116/35
f 89/105/35 73/86/35 155/112/35
f 155/112/1 156/114/1 89/105/1
f 76/84/35 158/118/35 159/120/35
f 107/121/36 108/126/36 160/122/36
f 94/123/2 109/128/2 161/124/2
f 162/125/35 78/87/35 94/123/35
f 91/104/35 75/82/35 159/120/35
f 159/120/2 160/122/2 91/104/2
f 78/87/35 162/125/35 163/127/35
f 109/128/37 110/133/37 164/129/37
f 96/130/1 111/135/1 165/131/1
f 166/132/35 80/89/35 96/130/35
f 93/107/35 77/91/35 163/127/35
f 163/127/1 164/129/1 93/107/1
f 80/89/35 166/132/35 167/134/35
f 111/135/38 112/140/38 168/136/38
f 98/137/2 113/142/2 169/138/2
f 170/139/35 82/92/35 98/137/35
f 95/106/35 79/88/35 167/134/35
f 167/134/2 168/136/2 95/106/2
f 82/92/35 170/139/35 171/141/35
f 113/142/36 114/147/36 172/143/36
f 100/144/1 115/149/1 173/145/1
f 174/146/35 84/95/35 100/144/35
f 97/109/35 81/97/35 171/141/35
f 171/141/1 172/143/1 97/109/1
f 84/95/35 174/146/35 175/148/35
f 115/149/35 116/154/35 176/150/35
f 102/151/2 117/156/2 177/152/2
f 178/153/35 86/98/35 102/151/35
f 99/108/35 83/93/35 175/148/35
f 175/148/2 176/150/2 99/108/2
f 86/98/35 178/153/35 179/155/35
f 117/156/38 118/161/38 180/157/38
f 104/158/1 119/163/1 181/159/1
f 182/160/35 88/101/35 104/158/35
f 101/111/35 85/103/35 179/155/35
f 179/155/1 180/157/1 101/111/1
f 88/101/35 182/160/35 183/162/35
f 119/163/37 120/165/37 184/164/37
f 103/110/35 87/99/35 183/162/35
f 183/162/2 184/164/2 103/110/2
f 128/168/37 121/174/37 125/166/37
f 121/174/37 122/169/37 124/171/37
f 125/166/37 121/174/37 124/171/37
f 122/169/37 123/170/37 124/171/37
f 125/166/37 126/173/37 127/167/37
f 122/169/1 121/174/1 89/105/1
f 123/170/35 122/169/35 106/119/35
f 124/171/2 123/170/2 105/113/2
f 125/166/2 124/171/2 90/172/2
f 126/173/2 125/166/2 91/104/2
f 127/167/36 126/173/36 108/126/36
f 128/168/1 127/167/1 107/121/1
f 121/174/1 128/168/1 92/116/1
f 136/177/36 129/182/36 133/175/36
f 129/182/36 130/178/36 132/180/36
f 133/175/36 129/182/36 132/180/36
f 130/178/36 131/179/36 132/180/36
f 133/175/36 134/181/36 135/176/36
f 130/178/1 129/182/1 93/107/1
f 131/179/37 130/178/37 110/133/37
f 132/180/2 131/179/2 109/128/2
f 133/175/2 132/180/2 94/123/2
f 134/181/2 133/175/2 95/106/2
f 135/176/38 134/181/38 112/140/38
f 136/177/1 135/176/1 111/135/1
f 129/182/1 136/177/1 96/130/1
f 144/185/38 137/190/38 141/183/38
f 137/190/38 138/186/38 140/188/38
f 141/183/38 137/190/38 140/188/38
f 138/186/38 139/187/38 140/188/38
f 141/183/38 142/189/38 143/184/38
f 138/186/1 137/190/1 97/109/1
f 139/187/36 138/186/36 114/147/36
f 140/188/2 139/187/2 113/142/2
f 141/183/2 140/188/2 98/137/2
f 142/189/2 141/183/2 99/108/2
f 143/184/35 142/189/35 116/154/35
f 144/185/1 143/184/1 115/149/1
f 137/190/1 144/185/1 100/144/1
f 152/193/35 145/198/35 149/191/35
f 145/198/35 146/194/35 148/196/35
f 149/191/35 145/198/35 148/196/35
f 146/194/35 147/195/35 148/196/35
f 149/191/35 150/197/35 151/192/35
f 146/194/1 145/198/1 101/111/1
f 147/195/38 146/194/38 118/161/38
f 148/196/2 147/195/2 117/156/2
f 149/191/2 148/196/2 102/151/2
f 150/197/2 149/191/2 103/110/2
f 151/192/37 150/197/37 120/165/37
f 152/193/1 151/192/1 119/163/1
f 145/198/1 152/193/1 104/158/1
f 156/114/39 155/112/39 154/199/39
f 160/122/40 159/120/40 158/118/40
f 164/129/41 163/127/41 162/125/41
f 168/136/42 167/134/42 166/132/42
f 172/143/43 171/141/43 170/139/43
f 176/150/44 175/148/44 174/146/44
f 180/157/45 179/155/45 178/153/45
f 184/164/46 183/162/46 182/160/46
f 90/172/2 105/113/2 153/115/2
f 154/199/35 74/79/35 90/172/35
